<svg xmlns="http://www.w3.org/2000/svg" xmlns:xlink="http://www.w3.org/1999/xlink" viewBox="0 0 1600 1400"><defs><style>.cls-1{isolation:isolate;}.cls-2{opacity:0.18;fill:url(#linear-gradient);}.cls-3{fill:#231f20;}.cls-4{fill:url(#linear-gradient-2);}.cls-5{fill:url(#linear-gradient-3);}.cls-6{fill:url(#linear-gradient-4);}.cls-7{fill:url(#linear-gradient-5);}.cls-8{fill:url(#linear-gradient-6);}.cls-9{fill:url(#linear-gradient-7);}.cls-10{fill:none;}.cls-11,.cls-37{fill:#131829;}.cls-12,.cls-36{fill:#fff;}.cls-13{fill:#f5cd6d;}.cls-14{fill:url(#linear-gradient-8);}.cls-15{fill:url(#linear-gradient-9);}.cls-16{fill:#ccc;}.cls-17{fill:#293658;}.cls-18{fill:#d1d3d4;}.cls-19{fill:url(#linear-gradient-10);}.cls-20{fill:url(#linear-gradient-11);}.cls-21{fill:#d6556d;}.cls-22{fill:url(#linear-gradient-12);}.cls-23{fill:url(#linear-gradient-13);}.cls-24{fill:url(#linear-gradient-14);}.cls-25{fill:url(#linear-gradient-15);}.cls-26{fill:url(#linear-gradient-16);}.cls-27{fill:#ef4164;}.cls-28{fill:#601727;}.cls-29{fill:#bcbec0;}.cls-30{fill:url(#linear-gradient-17);}.cls-31{fill:url(#linear-gradient-18);}.cls-32{fill:#45559d;}.cls-33{fill:url(#linear-gradient-19);}.cls-34{opacity:0.49;fill:url(#linear-gradient-20);}.cls-35{fill:#596bb2;}.cls-36,.cls-54{opacity:0.69;}.cls-102,.cls-37,.cls-60,.cls-67{mix-blend-mode:multiply;}.cls-38{fill:url(#linear-gradient-21);}.cls-39{fill:url(#linear-gradient-22);}.cls-40{fill:#f5cd6e;}.cls-41{fill:url(#linear-gradient-23);}.cls-42{fill:url(#linear-gradient-24);}.cls-43{fill:url(#linear-gradient-25);}.cls-44{fill:url(#linear-gradient-26);}.cls-45{fill:url(#linear-gradient-27);}.cls-46{fill:url(#linear-gradient-28);}.cls-47{fill:url(#linear-gradient-29);}.cls-48{fill:url(#linear-gradient-30);}.cls-49{fill:url(#linear-gradient-31);}.cls-50{fill:#5b94ce;}.cls-51{fill:#91d7e8;}.cls-52{fill:#c471ae;}.cls-53{fill:#1d2340;}.cls-55{fill:url(#linear-gradient-32);}.cls-56{fill:url(#linear-gradient-33);}.cls-57{opacity:0.75;}.cls-58{fill:url(#linear-gradient-34);}.cls-59{fill:url(#linear-gradient-35);}.cls-60{fill:url(#linear-gradient-36);}.cls-61{fill:url(#linear-gradient-37);}.cls-62{fill:url(#linear-gradient-38);}.cls-63{fill:url(#linear-gradient-39);}.cls-64{fill:url(#linear-gradient-40);}.cls-65{fill:url(#linear-gradient-41);}.cls-66{fill:url(#linear-gradient-42);}.cls-68{fill:url(#New_Gradient_Swatch_4);}.cls-69{fill:url(#New_Gradient_Swatch_4-2);}.cls-70{fill:url(#New_Gradient_Swatch_4-3);}.cls-71{fill:url(#New_Gradient_Swatch_4-4);}.cls-72{fill:url(#New_Gradient_Swatch_4-5);}.cls-73{fill:url(#New_Gradient_Swatch_4-6);}.cls-74{fill:url(#New_Gradient_Swatch_4-7);}.cls-75{fill:url(#New_Gradient_Swatch_4-8);}.cls-76{fill:url(#New_Gradient_Swatch_4-9);}.cls-77{fill:url(#New_Gradient_Swatch_4-10);}.cls-78{fill:url(#New_Gradient_Swatch_4-11);}.cls-79{fill:url(#New_Gradient_Swatch_4-12);}.cls-80{fill:url(#New_Gradient_Swatch_4-13);}.cls-81{fill:url(#New_Gradient_Swatch_4-14);}.cls-82{fill:url(#New_Gradient_Swatch_4-15);}.cls-83{fill:url(#New_Gradient_Swatch_4-16);}.cls-84{fill:url(#New_Gradient_Swatch_4-17);}.cls-85{fill:url(#New_Gradient_Swatch_4-18);}.cls-86{fill:url(#New_Gradient_Swatch_4-19);}.cls-87{fill:url(#New_Gradient_Swatch_4-20);}.cls-88{fill:url(#New_Gradient_Swatch_4-21);}.cls-89{fill:url(#New_Gradient_Swatch_4-22);}.cls-90{fill:url(#New_Gradient_Swatch_4-23);}.cls-91{fill:url(#New_Gradient_Swatch_4-24);}.cls-92{fill:url(#New_Gradient_Swatch_4-25);}.cls-93{fill:url(#New_Gradient_Swatch_4-26);}.cls-94{fill:url(#New_Gradient_Swatch_4-27);}.cls-95{fill:url(#New_Gradient_Swatch_4-28);}.cls-96{fill:url(#New_Gradient_Swatch_4-29);}.cls-97{fill:url(#New_Gradient_Swatch_4-30);}.cls-98{fill:url(#New_Gradient_Swatch_4-31);}.cls-99{fill:url(#New_Gradient_Swatch_4-32);}.cls-100{fill:url(#New_Gradient_Swatch_4-33);}.cls-101{fill:url(#New_Gradient_Swatch_4-34);}.cls-102{fill:url(#New_Gradient_Swatch_4-35);}</style><linearGradient id="linear-gradient" x1="1279.3" y1="6.32" x2="508.48" y2="1346.79" gradientUnits="userSpaceOnUse"><stop offset="0" stop-color="#7d7cbb" stop-opacity="0.3"/><stop offset="0.36" stop-color="#565595" stop-opacity="0.64"/><stop offset="0.74" stop-color="#373576" stop-opacity="0.9"/><stop offset="1" stop-color="#2c2a6b"/></linearGradient><linearGradient id="linear-gradient-2" x1="530.93" y1="544.27" x2="907.92" y2="723.32" gradientUnits="userSpaceOnUse"><stop offset="0" stop-color="#fff"/><stop offset="0.31" stop-color="#d5dcee"/><stop offset="0.59" stop-color="#b6c1e2"/><stop offset="0.83" stop-color="#a3b1da"/><stop offset="1" stop-color="#9cabd7"/></linearGradient><linearGradient id="linear-gradient-3" x1="559.74" y1="652.24" x2="968.28" y2="652.24" gradientUnits="userSpaceOnUse"><stop offset="0" stop-color="#8a7ebb"/><stop offset="0.03" stop-color="#8378b5"/><stop offset="0.2" stop-color="#645c9a"/><stop offset="0.38" stop-color="#4b4685"/><stop offset="0.56" stop-color="#3a3677"/><stop offset="0.76" stop-color="#2f2d6e"/><stop offset="1" stop-color="#2c2a6b"/></linearGradient><linearGradient id="linear-gradient-4" x1="572.19" y1="652.24" x2="980.73" y2="652.24" xlink:href="#linear-gradient-3"/><linearGradient id="linear-gradient-5" x1="481.07" y1="208.73" x2="1022.28" y2="547.29" xlink:href="#linear-gradient-2"/><linearGradient id="linear-gradient-6" x1="482.41" y1="206.59" x2="1023.62" y2="545.15" xlink:href="#linear-gradient-3"/><linearGradient id="linear-gradient-7" x1="502.01" y1="218.85" x2="1025.59" y2="546.38" xlink:href="#linear-gradient-3"/><linearGradient id="linear-gradient-8" x1="955.57" y1="1099.77" x2="850" y2="693.25" gradientUnits="userSpaceOnUse"><stop offset="0" stop-color="#f1f2f2"/><stop offset="1" stop-color="#fff"/></linearGradient><linearGradient id="linear-gradient-9" x1="556.56" y1="1070.66" x2="692.2" y2="705.38" xlink:href="#linear-gradient-8"/><linearGradient id="linear-gradient-10" x1="774.32" y1="673.47" x2="741.9" y2="465.33" gradientUnits="userSpaceOnUse"><stop offset="0" stop-color="#f08369"/><stop offset="0.5" stop-color="#ee7a7c"/><stop offset="1" stop-color="#ed738b"/></linearGradient><linearGradient id="linear-gradient-11" x1="782.39" y1="672.21" x2="749.97" y2="464.07" xlink:href="#linear-gradient-10"/><linearGradient id="linear-gradient-12" x1="803.7" y1="660.53" x2="743.03" y2="271" xlink:href="#linear-gradient-10"/><linearGradient id="linear-gradient-13" x1="891.35" y1="646.87" x2="830.67" y2="257.35" xlink:href="#linear-gradient-10"/><linearGradient id="linear-gradient-14" x1="896.23" y1="646.11" x2="835.56" y2="256.58" xlink:href="#linear-gradient-10"/><linearGradient id="linear-gradient-15" x1="716.15" y1="674.16" x2="655.48" y2="284.63" xlink:href="#linear-gradient-10"/><linearGradient id="linear-gradient-16" x1="713.72" y1="674.54" x2="653.05" y2="285.01" xlink:href="#linear-gradient-10"/><linearGradient id="linear-gradient-17" x1="855.98" y1="448.17" x2="733.01" y2="292.84" gradientUnits="userSpaceOnUse"><stop offset="0.11" stop-color="#b2decd"/><stop offset="0.2" stop-color="#9cd0c7"/><stop offset="0.48" stop-color="#5aa6b6"/><stop offset="0.72" stop-color="#2a88aa"/><stop offset="0.9" stop-color="#0c75a2"/><stop offset="1" stop-color="#016e9f"/></linearGradient><linearGradient id="linear-gradient-18" x1="795.5" y1="496.04" x2="672.53" y2="340.72" xlink:href="#linear-gradient-17"/><linearGradient id="linear-gradient-19" x1="871.62" y1="489.5" x2="711.44" y2="381.64" gradientUnits="userSpaceOnUse"><stop offset="0" stop-color="#897ebb"/><stop offset="0.65" stop-color="#444e91"/><stop offset="1" stop-color="#24387e"/></linearGradient><linearGradient id="linear-gradient-20" x1="876.15" y1="457.8" x2="702.22" y2="344.55" gradientUnits="userSpaceOnUse"><stop offset="0.11" stop-color="#b2decd"/><stop offset="0.23" stop-color="#a2d4c9"/><stop offset="0.45" stop-color="#7ababe"/><stop offset="0.76" stop-color="#3991ad"/><stop offset="1" stop-color="#016e9f"/></linearGradient><linearGradient id="linear-gradient-21" x1="657.15" y1="1386.96" x2="101.1" y2="796.93" xlink:href="#linear-gradient-3"/><linearGradient id="linear-gradient-22" x1="1254.19" y1="1094.8" x2="1213.97" y2="1000.94" xlink:href="#linear-gradient-17"/><linearGradient id="linear-gradient-23" x1="1249.95" y1="1196.15" x2="830.89" y2="600.74" xlink:href="#linear-gradient-8"/><linearGradient id="linear-gradient-24" x1="967.31" y1="1175.73" x2="1310.73" y2="804.41" xlink:href="#linear-gradient-10"/><linearGradient id="linear-gradient-25" x1="400.27" y1="1056.71" x2="490.34" y2="755.76" xlink:href="#linear-gradient-8"/><linearGradient id="linear-gradient-26" x1="467.8" y1="1097.41" x2="564.07" y2="765.72" xlink:href="#linear-gradient-8"/><linearGradient id="linear-gradient-27" x1="621.12" y1="1199.5" x2="446.38" y2="1050.24" xlink:href="#linear-gradient-20"/><linearGradient id="linear-gradient-28" x1="539.29" y1="1228.96" x2="252.09" y2="1037.23" xlink:href="#linear-gradient-10"/><linearGradient id="linear-gradient-29" x1="610.98" y1="1121.57" x2="323.79" y2="929.84" xlink:href="#linear-gradient-10"/><linearGradient id="linear-gradient-30" x1="557.38" y1="1201.86" x2="270.18" y2="1010.13" xlink:href="#linear-gradient-10"/><linearGradient id="linear-gradient-31" x1="587.07" y1="1157.38" x2="299.88" y2="965.65" xlink:href="#linear-gradient-10"/><linearGradient id="linear-gradient-32" x1="243.03" y1="690.51" x2="729.62" y2="690.51" xlink:href="#linear-gradient-17"/><linearGradient id="linear-gradient-33" x1="243.03" y1="810.8" x2="729.63" y2="810.8" xlink:href="#linear-gradient-17"/><linearGradient id="linear-gradient-34" x1="1172.18" y1="766.92" x2="891.76" y2="486.51" gradientTransform="translate(-31.33 30.9) rotate(0.28)" xlink:href="#linear-gradient-17"/><linearGradient id="linear-gradient-35" x1="1161.74" y1="779.25" x2="880.75" y2="498.27" xlink:href="#linear-gradient-17"/><linearGradient id="linear-gradient-36" x1="4024.15" y1="-6525.33" x2="3743.73" y2="-6805.75" gradientTransform="translate(-6386.44 2549.32) rotate(45.28)" xlink:href="#linear-gradient-17"/><linearGradient id="linear-gradient-37" x1="1231.41" y1="696.55" x2="978.15" y2="443.29" gradientTransform="matrix(0, 0.81, -1, 0, 1731.01, -276.71)" xlink:href="#linear-gradient-17"/><linearGradient id="linear-gradient-38" x1="1245.35" y1="733.13" x2="905.52" y2="393.3" gradientTransform="translate(1757.37 -475.82) rotate(89.99)" xlink:href="#linear-gradient-17"/><linearGradient id="linear-gradient-39" x1="2865.56" y1="790.83" x2="2474.08" y2="399.34" gradientTransform="matrix(0, 0.82, -1, 0, 1761, -1541.32)" xlink:href="#linear-gradient-17"/><linearGradient id="linear-gradient-40" x1="1181.05" y1="767.08" x2="892.66" y2="478.69" gradientTransform="translate(-31.33 30.9) rotate(0.28)" xlink:href="#linear-gradient-17"/><linearGradient id="linear-gradient-41" x1="1197.11" y1="645.9" x2="1167.85" y2="616.63" gradientTransform="translate(-31.33 30.9) rotate(0.28)" xlink:href="#linear-gradient-17"/><linearGradient id="linear-gradient-42" x1="1166.62" y1="697.67" x2="1137.36" y2="668.4" gradientTransform="translate(-31.33 30.9) rotate(0.28)" xlink:href="#linear-gradient-17"/><linearGradient id="New_Gradient_Swatch_4" x1="342.57" y1="83.63" x2="547.81" y2="288.87" gradientUnits="userSpaceOnUse"><stop offset="0" stop-color="#73a6d9"/><stop offset="0.95" stop-color="#a3dce9"/><stop offset="1" stop-color="#a4dce9"/></linearGradient><linearGradient id="New_Gradient_Swatch_4-2" x1="355.45" y1="70.76" x2="560.68" y2="275.99" xlink:href="#New_Gradient_Swatch_4"/><linearGradient id="New_Gradient_Swatch_4-3" x1="328.95" y1="97.25" x2="534.19" y2="302.48" xlink:href="#New_Gradient_Swatch_4"/><linearGradient id="New_Gradient_Swatch_4-4" x1="1104.58" y1="514.25" x2="1405.99" y2="815.66" xlink:href="#New_Gradient_Swatch_4"/><linearGradient id="New_Gradient_Swatch_4-5" x1="1036.79" y1="582.05" x2="1338.19" y2="883.45" gradientTransform="translate(1271.8 -673.84) rotate(59.98)" xlink:href="#New_Gradient_Swatch_4"/><linearGradient id="New_Gradient_Swatch_4-6" x1="1133.87" y1="484.96" x2="1435.28" y2="786.37" xlink:href="#New_Gradient_Swatch_4"/><linearGradient id="New_Gradient_Swatch_4-7" x1="1089.31" y1="529.52" x2="1390.72" y2="830.93" xlink:href="#New_Gradient_Swatch_4"/><linearGradient id="New_Gradient_Swatch_4-8" x1="1073.04" y1="545.79" x2="1374.44" y2="847.2" xlink:href="#New_Gradient_Swatch_4"/><linearGradient id="New_Gradient_Swatch_4-9" x1="1163.2" y1="455.63" x2="1464.61" y2="757.04" xlink:href="#New_Gradient_Swatch_4"/><linearGradient id="New_Gradient_Swatch_4-10" x1="1202.78" y1="416.06" x2="1504.17" y2="717.46" gradientTransform="translate(1195.42 -896.18) rotate(60.01)" xlink:href="#New_Gradient_Swatch_4"/><linearGradient id="New_Gradient_Swatch_4-11" x1="1197.77" y1="421.06" x2="1499.18" y2="722.46" xlink:href="#New_Gradient_Swatch_4"/><linearGradient id="New_Gradient_Swatch_4-12" x1="1362.88" y1="698.2" x2="1019.32" y2="698.2" xlink:href="#New_Gradient_Swatch_4"/><linearGradient id="New_Gradient_Swatch_4-13" x1="1362.88" y1="698.2" x2="1019.33" y2="698.2" xlink:href="#New_Gradient_Swatch_4"/><linearGradient id="New_Gradient_Swatch_4-14" x1="1362.88" y1="787.24" x2="1019.32" y2="787.24" xlink:href="#New_Gradient_Swatch_4"/><linearGradient id="New_Gradient_Swatch_4-15" x1="1362.88" y1="653.69" x2="1019.32" y2="653.69" xlink:href="#New_Gradient_Swatch_4"/><linearGradient id="New_Gradient_Swatch_4-16" x1="1362.88" y1="742.72" x2="1019.32" y2="742.72" xlink:href="#New_Gradient_Swatch_4"/><linearGradient id="New_Gradient_Swatch_4-17" x1="1362.89" y1="653.69" x2="1019.29" y2="653.69" xlink:href="#New_Gradient_Swatch_4"/><linearGradient id="New_Gradient_Swatch_4-18" x1="1362.89" y1="564.65" x2="1019.29" y2="564.65" xlink:href="#New_Gradient_Swatch_4"/><linearGradient id="New_Gradient_Swatch_4-19" x1="1362.88" y1="564.65" x2="1019.32" y2="564.65" xlink:href="#New_Gradient_Swatch_4"/><linearGradient id="New_Gradient_Swatch_4-20" x1="1389.05" y1="653.69" x2="1383.91" y2="653.69" xlink:href="#New_Gradient_Swatch_4"/><linearGradient id="New_Gradient_Swatch_4-21" x1="1476.89" y1="653.69" x2="1471.75" y2="653.69" xlink:href="#New_Gradient_Swatch_4"/><linearGradient id="New_Gradient_Swatch_4-22" x1="1362.88" y1="653.69" x2="1019.33" y2="653.69" xlink:href="#New_Gradient_Swatch_4"/><linearGradient id="New_Gradient_Swatch_4-23" x1="1362.88" y1="609.17" x2="1019.32" y2="609.17" xlink:href="#New_Gradient_Swatch_4"/><linearGradient id="New_Gradient_Swatch_4-24" x1="1362.88" y1="609.17" x2="1019.33" y2="609.17" xlink:href="#New_Gradient_Swatch_4"/><linearGradient id="New_Gradient_Swatch_4-25" x1="1362.87" y1="609.17" x2="1019.38" y2="609.17" xlink:href="#New_Gradient_Swatch_4"/><linearGradient id="New_Gradient_Swatch_4-26" x1="1389.05" y1="564.65" x2="1383.91" y2="564.65" xlink:href="#New_Gradient_Swatch_4"/><linearGradient id="New_Gradient_Swatch_4-27" x1="1362.88" y1="609.17" x2="1019.28" y2="609.17" xlink:href="#New_Gradient_Swatch_4"/><linearGradient id="New_Gradient_Swatch_4-28" x1="1362.89" y1="742.72" x2="1019.29" y2="742.72" xlink:href="#New_Gradient_Swatch_4"/><linearGradient id="New_Gradient_Swatch_4-29" x1="1362.88" y1="698.2" x2="1019.28" y2="698.2" xlink:href="#New_Gradient_Swatch_4"/><linearGradient id="New_Gradient_Swatch_4-30" x1="1362.87" y1="698.2" x2="1019.38" y2="698.2" xlink:href="#New_Gradient_Swatch_4"/><linearGradient id="New_Gradient_Swatch_4-31" x1="1362.88" y1="564.65" x2="1019.33" y2="564.65" xlink:href="#New_Gradient_Swatch_4"/><linearGradient id="New_Gradient_Swatch_4-32" x1="1362.88" y1="520.86" x2="1019.33" y2="520.86" xlink:href="#New_Gradient_Swatch_4"/><linearGradient id="New_Gradient_Swatch_4-33" x1="1140.52" y1="523.84" x2="1250.23" y2="633.55" xlink:href="#New_Gradient_Swatch_4"/><linearGradient id="New_Gradient_Swatch_4-34" x1="1140.83" y1="523.52" x2="1250.55" y2="633.23" xlink:href="#New_Gradient_Swatch_4"/><linearGradient id="New_Gradient_Swatch_4-35" x1="1213.79" y1="654.79" x2="1319.31" y2="760.31" xlink:href="#New_Gradient_Swatch_4"/></defs><title>DATABASE</title><g class="cls-1"><g id="Layer_1" data-name="Layer 1"><path id="BG" class="cls-2" d="M1433.61,957.89S1568.66,684.22,1339,720.73s194.6-292.37-27.09-359.81S1241.3,26.65,886.21,81.71,348.8,447,334.66,566.12-19.47,836.66,105.47,957.89,1234.92,1160.66,1433.61,957.89Z"/><g id="CHAIR"><path class="cls-3" d="M856.47,607.93l-.57,0a5,5,0,0,1-4.41-5.52l16.67-148.59a5,5,0,1,1,9.93,1.12L861.43,603.49A5,5,0,0,1,856.47,607.93Z"/><path class="cls-3" d="M645.9,607.93a5,5,0,0,1-5-4.45l-16.6-151.3a5,5,0,0,1,9.94-1.09l16.6,151.3a5,5,0,0,1-4.43,5.51A5.07,5.07,0,0,1,645.9,607.93Z"/><path class="cls-4" d="M559.74,700l11.72-58.16a60.51,60.51,0,0,1,56.38-48.47l265.61-12.88a46.34,46.34,0,0,1,47.1,34.62l27.73,106.64Z"/><path class="cls-5" d="M940.55,615.11a46.35,46.35,0,0,0-29.89-32.19,38.39,38.39,0,0,0-5.68-.16L640.29,599.4a60.49,60.49,0,0,0-56.37,48.47l-10.66,52.85,395,21Z"/><path class="cls-6" d="M940.55,615.11a46.35,46.35,0,0,0-29.89-32.19,38.39,38.39,0,0,0-5.68-.16L640.29,599.4a60.49,60.49,0,0,0-56.37,48.47l-10.66,52.85,395,21Z"/><path class="cls-7" d="M614.52,525.73,885.44,517a49.74,49.74,0,0,0,47.94-45.27l16.24-181.23a49.74,49.74,0,0,0-50.14-54.17L601,239.88a49.74,49.74,0,0,0-49.05,52.76L563.27,479A49.75,49.75,0,0,0,614.52,525.73Z"/><path class="cls-3" d="M961.67,715.75l-1.37-.08L550.61,693.86l11.95-59.29a61.44,61.44,0,0,1,57.3-49.28l265.62-12.88a47.52,47.52,0,0,1,48.11,35.37ZM553,692,959,713.6,931.65,608.28a45.54,45.54,0,0,0-46.07-33.87L620,587.29A59.43,59.43,0,0,0,564.52,635Z"/><path class="cls-8" d="M933.38,471.71l16.24-181.23a49.47,49.47,0,0,0-6.87-30,47.35,47.35,0,0,0-36.68-16.74l-287.36,3.49c-27.36.34-48.89,23.9-47.22,51.69l10.94,182.59a48.54,48.54,0,0,0,35.34,44.1L885.44,517A49.74,49.74,0,0,0,933.38,471.71Z"/><path class="cls-9" d="M933.38,471.71l16.24-181.23a49.47,49.47,0,0,0-6.87-30,47.35,47.35,0,0,0-36.68-16.74l-287.36,3.49c-27.36.34-48.89,23.9-47.22,51.69l10.94,182.59a48.54,48.54,0,0,0,35.34,44.1L885.44,517A49.74,49.74,0,0,0,933.38,471.71Z"/><path class="cls-3" d="M603.23,516.76a50.73,50.73,0,0,1-50.61-47.65L541.25,282.72a50.75,50.75,0,0,1,50-53.83l298.52-3.57A50.74,50.74,0,0,1,941,280.59L924.72,461.81A50.79,50.79,0,0,1,875.82,508L604.9,516.74C604.34,516.76,603.78,516.76,603.23,516.76Zm1.6-2,0,1,0-1L875.75,506a48.78,48.78,0,0,0,47-44.36L939,280.41a48.73,48.73,0,0,0-48.55-53.09h-.58l-298.52,3.57a48.73,48.73,0,0,0-48.06,51.7L554.61,469A48.48,48.48,0,0,0,604.83,514.74Z"/><path class="cls-10" d="M601.14,863.44l-4.38-78.07S597.41,823.29,601.14,863.44Z"/><path class="cls-11" d="M951.53,668c-8.31-19.86-52.87-36.45-80.53-43.73a223,223,0,0,1-21.63-23.83c-5-6.58-9.9-12.25-14.38-17.11l-23.6,1.15,2.75,25.24-88.95,6.13-1.09.81,2.16-28L697.5,590c-3.62,4.72-7.54,10.19-11.75,16.55C682.13,612,678.2,618,674.1,624.31l-88.79,26.18,4.34,51.1,359.4,19.14Z"/><path class="cls-11" d="M853.49,472.13q.57-2.56,1.08-5.1h5.59c5.54,0,9.4-3.22,11.34-8.42h2.81c5.38,0,8.74-4.08,9.74-10.33a232.11,232.11,0,0,0,2.16-33.42c0-21.1-2.16-30.68-2.16-30.68-.86-6-4.36-10.32-9.74-10.32h-2.79A13,13,0,0,0,866,367c10-13.64,19.89-31.91,18.43-49.2-4.59-54.45-85.75-33.17-85.75-33.17,7.68-21.84-15-25.89-70-6.88S676.65,342,676.65,342c-18.34,5.63-17,19.84-11.86,31.84h-2.25c-5.38,0-8.88,4.28-9.74,10.32,0,0-2.16,9.58-2.16,30.68a232.11,232.11,0,0,0,2.16,33.42c1,6.25,4.36,10.33,9.74,10.33h2.81c1.94,5.2,5.8,8.42,11.34,8.42h6.46c.29,1.61.59,3.23.89,4.86h0c3.3,17.34,8.1,35.23,15,51.11l138.83-4.48c7.19-14.65,12.18-30.74,15.64-46.39Z"/><path class="cls-11" d="M666.41,321.59c-9.3.4-17.6,13.35,6.67,15.17C673.08,336.76,675.71,321.18,666.41,321.59Z"/></g><g id="BODY"><polygon class="cls-12" points="722.15 624.37 811.1 618.24 874.44 667.92 855.43 1015.18 697.27 1015.18 657.63 672.51 722.15 624.37"/><rect class="cls-13" x="757.46" y="770.37" width="19" height="118.52"/><path class="cls-13" d="M785.63,793.64v20a57.47,57.47,0,1,1-37.33-1.06V792.87a76.49,76.49,0,1,0,37.33.77Z"/><path class="cls-14" d="M840.73,625.85S931.34,648,942.66,657.13l-3.23,349.49-107.87,8.56s8.91-101.42-2-140S840.73,625.85,840.73,625.85Z"/><path class="cls-15" d="M716.48,864l-21.64-66.48h0l-1.88-169-107.33,21,20,357.26,102.13-.63C723.16,956.06,716.48,864,716.48,864Z"/><path class="cls-16" d="M832.1,845.9c-2.82-83,70.65-124.15,70.65-124.15l-46.29-63.54a71.41,71.41,0,0,0-20,12.25c-5.81,64-14.61,177.4-6.88,204.7,10.93,38.6,2,140,2,140C840.19,936.92,834.92,928.93,832.1,845.9Z"/><path class="cls-16" d="M662.74,716.72,622.3,760.15S708.73,822.71,716.48,864Z"/><path class="cls-17" d="M725.36,569.47s-15.15,4.07-42.65,45.6-72.81,113.8-72.81,113.8S698.35,798.44,716.48,864c0,0-21.1-94.12-12.2-140.5s16.18-90.6,16.18-90.6Z"/><path class="cls-17" d="M805.67,568.35S824.08,580,846.33,609,905,664,905,664s-89.6,116.09-75.44,211.15c0,0-23.87-64.32-19.42-131.87s8.5-96.81,2.57-110.42Z"/><polygon class="cls-17" points="841.27 748.55 904.98 736.01 904.98 754.21 841.27 762.71 841.27 748.55"/><path class="cls-18" d="M716.87,654.05s22.1,22.1,85.18,6.93c0,0-44.54,19.19-86.2-1Z"/><path class="cls-18" d="M717.92,1006s-96.7-19.92-109.64-68.46S593.72,793.9,593.72,793.9L586.07,1005S690.39,1010.06,717.92,1006Z"/><path class="cls-16" d="M945.36,746.12l-9.12,187.39s4.27,28.88-23.24,42.91-80.08,20.16-80.08,20.16l-1.36,18.6,107.87-4.25Z"/></g><g id="HEAD"><path class="cls-17" d="M672,464.21h26V362.63H672c-6.84,0-11.28,5.13-12.38,12.38,0,0-2.74,11.48-2.74,36.76,0,24,2.74,40.06,2.74,40.06C660.84,459.32,665.11,464.21,672,464.21Z"/><path class="cls-17" d="M657.8,455.8h20.45V371H657.8c-5.38,0-8.87,4.28-9.74,10.33,0,0-2.15,9.58-2.15,30.67a233.24,233.24,0,0,0,2.15,33.43C649.06,451.71,652.42,455.8,657.8,455.8Z"/><path class="cls-17" d="M855.43,464.21h-26V362.63h26c6.83,0,11.28,5.13,12.38,12.38,0,0,2.73,11.48,2.73,36.76,0,24-2.73,40.06-2.73,40.06C866.54,459.32,862.26,464.21,855.43,464.21Z"/><path class="cls-17" d="M869.57,455.8H849.13V371h20.44c5.39,0,8.88,4.28,9.75,10.33,0,0,2.15,9.58,2.15,30.67a233.24,233.24,0,0,1-2.15,33.43C878.32,451.71,875,455.8,869.57,455.8Z"/><g id="FACE"><path class="cls-19" d="M725.36,569.47l-4.9,63.4c38.83,35,92.23,0,92.23,0l-6.56-60.34C794.85,578,755.82,594.06,725.36,569.47Z"/><path class="cls-20" d="M806.13,572.53l-4.08-37.46H728l-2.65,34.4C755.82,594.06,794.85,578,806.13,572.53Z"/><path class="cls-21" d="M806.13,572.53l-4.08-37.46H728l-2.65,34.4C755.82,594.06,794.85,578,806.13,572.53Z"/><path class="cls-22" d="M856.37,390.17s6.47,165.12-90.07,179.91-94.38-179.91-94.38-179.91,2.16-40,87.37-40S856.37,390.17,856.37,390.17Z"/><path class="cls-23" d="M853.9,438.6h0a342.23,342.23,0,0,0,2.47-48.36A341.86,341.86,0,0,1,853.9,438.6Z"/><path class="cls-24" d="M856.37,390.17v0Z"/><path class="cls-25" d="M671.92,390.24v0Z"/><path class="cls-26" d="M671.92,390.24a450.64,450.64,0,0,0,3.8,56.24v0A451.41,451.41,0,0,1,671.92,390.24Z"/><path class="cls-21" d="M671.92,390.24Z"/><path class="cls-21" d="M856.37,390.22v0Z"/><path class="cls-21" d="M853.9,438.6a341.86,341.86,0,0,0,2.47-48.36v-.07s-11.86-40-97.08-40-87.37,40-87.37,40v.07h0a451.41,451.41,0,0,0,3.8,56.22v0c.94,7.26,2.12,14.87,3.59,22.59a235.1,235.1,0,0,0,32.52-3.67c19.28-3.77,49.65-5.75,49.65-5.75s25.72,1.71,53.23,5.89c21.49,3.26,30.94,3.73,34,3.78,2.36-10.65,4-21.09,5.15-30.72Z"/><path class="cls-27" d="M762,434.31l-6.9,56.63,26.42-5.67s-2.35-17.53-13.94-16.45Z"/><path class="cls-28" d="M735.46,524.46l77.23-20.36s-2.58,16.65-13.89,25S745.33,533.9,735.46,524.46Z"/><path class="cls-12" d="M735.46,524.46c9.61,9.19,49.81,12.82,62.37,5.28,1.21-7.06,2.8-17.57,3.56-22.66Z"/><path class="cls-29" d="M795.16,519s-32.16,7.73-54,5.3C741.16,524.26,784,528.82,795.16,519Z"/></g><path class="cls-30" d="M671.92,339.2s-3-45.3,52.05-64.31,77.66-15,70,6.87c0,0,81.16-21.28,85.76,33.17,2.83,33.58-37.22,70.79-37.22,70.79l-170.56,4.45S637.67,349.72,671.92,339.2Z"/><path class="cls-31" d="M668.35,333.94s2.63-15.57-6.68-15.16S644.08,332.12,668.35,333.94Z"/><path class="cls-12" d="M674.75,384.5l-.31-.37c-.8-.94-19.43-23.19-14.7-39.33,1.78-6.07,6.63-10.44,14.43-13a60.46,60.46,0,0,1,5.51-24.72c5.68-12.68,18.49-29.88,47.24-39.82,38.14-13.18,61.6-15.73,69.71-7.57,3.17,3.19,3.87,7.89,2.1,14,8.81-2.05,47.6-9.87,69.92,5.9,9.11,6.44,14.27,16.05,15.32,28.59,2.84,33.67-35.88,70.07-37.52,71.6l-.28.26ZM780.7,257c-10.33,0-26.85,3.05-53.13,12.13-28,9.69-40.49,26.37-46,38.66-6,13.33-5.36,24.53-5.35,24.64l0,.79-.76.23c-7.54,2.32-12.2,6.32-13.83,11.89-4.12,14,11.61,34.16,14,37.11l169.68-4.42c3.5-3.35,39.27-38.46,36.63-69.72-1-11.91-5.88-21-14.49-27.12-24-17-69.55-5.28-70-5.16l-1.82.48.62-1.78c2.17-6.16,1.81-10.76-1.07-13.65C793,258.83,788.67,257,780.7,257Z"/><path class="cls-12" d="M672.46,328.33l-.9-.07c-15.33-1.15-16.9-6.64-16.86-8.95.06-4.07,4.93-8,10.21-8.22a6.6,6.6,0,0,1,5.47,2.18c3.84,4.35,2.3,13.76,2.24,14.16Zm-7.15-15.25H665c-4.22.18-8.26,3.22-8.3,6.25-.06,3.51,5.18,6,14.07,6.85.27-2.36.7-8.66-1.89-11.6A4.52,4.52,0,0,0,665.31,313.08Z"/><g id="VR"><path class="cls-32" d="M868,401.32v26.85a26.42,26.42,0,0,1-29.41,26.25c-11.23-1.28-24.9-2.59-39.67-3.48-6.31-.39-12.85-.71-19.47-.89-5.06-.15-10.16-.24-15.28-.24-13.16,0-25.73.44-37.25,1.13-3.48.2-6.84.44-10.12.7q-5.64.39-10.85.89c-5.84.52-11.25,1.08-16.13,1.65a23.26,23.26,0,0,1-4.24.13,26.38,26.38,0,0,1-25.22-26.38V401.32a26.42,26.42,0,0,1,26.42-26.42h154.8A26.42,26.42,0,0,1,868,401.32Z"/><path class="cls-33" d="M868,401.32v31.91a26.42,26.42,0,0,1-29.41,26.25c-11.23-1.29-24.9-2.59-39.67-3.48-6.31-.39-12.85-.71-19.47-.89-5.06-.15-10.16-.24-15.28-.24-13.16,0-25.73.44-37.25,1.13-3.48.2-6.84.44-10.12.7q-5.64.39-10.85.89c-5.84.52-11.25,1.08-16.13,1.65a24.2,24.2,0,0,1-4.24.13A26.38,26.38,0,0,1,660.37,433V401.32a26.42,26.42,0,0,1,26.42-26.42h154.8A26.42,26.42,0,0,1,868,401.32Z"/><path class="cls-34" d="M825.85,369.84l-26.92,81.1c-6.31-.39-12.85-.71-19.47-.89l26.62-80.21Z"/><path class="cls-35" d="M733.42,369.84,706,452.53c-5.84.52-11.25,1.08-16.13,1.65a23.26,23.26,0,0,1-4.24.13l28-84.47Z"/><path class="cls-36" d="M753.85,369.84l-26.92,81.1c-3.48.2-6.84.44-10.12.7L744,369.84Z"/><path class="cls-36" d="M766.85,369.84l-26.92,81.1c-1.52.09-3,.18-4.47.29l27-81.39Z"/><path class="cls-12" d="M868,396.26v5.06a26.42,26.42,0,0,0-26.42-26.42H686.79a26.42,26.42,0,0,0-26.42,26.42v-5.06a26.42,26.42,0,0,1,26.42-26.42h154.8A26.42,26.42,0,0,1,868,396.26Z"/><path class="cls-3" d="M838.86,463.62a26.81,26.81,0,0,1-3.09-.18c-13.32-1.52-26.64-2.69-39.61-3.47-7.14-.44-13.49-.73-19.43-.89-5.28-.15-10.41-.23-15.26-.23-12.27,0-24.78.38-37.19,1.12-3.16.18-6.46.41-10.1.7s-7.07.53-10.84.89c-5.39.48-10.81,1-16.11,1.64a24.21,24.21,0,0,1-4.41.14A27.27,27.27,0,0,1,656.66,436V404.29a27.45,27.45,0,0,1,27.42-27.42h154.8a27.45,27.45,0,0,1,27.42,27.42V436.2a27.41,27.41,0,0,1-27.44,27.42Zm-77.39-6.77c4.87,0,10,.08,15.31.24,6,.15,12.34.44,19.51.89,13,.78,26.35,1.95,39.71,3.47a25.4,25.4,0,0,0,28.3-25.25V404.29a25.44,25.44,0,0,0-25.42-25.42H684.08a25.44,25.44,0,0,0-25.42,25.42V436a25.28,25.28,0,0,0,24.26,25.38,23.25,23.25,0,0,0,4.08-.12c5.32-.62,10.76-1.17,16.16-1.66,3.78-.35,7.34-.64,10.87-.89s7-.52,10.13-.69C736.6,457.23,749.16,456.85,761.47,456.85Z"/></g></g><path id="SHADOW" class="cls-37" d="M649.18,1259.12s-171.91-18.89-486.65-74.53c-9.59-1.69-13.75-13.2-15.37-43.13S173.8,984.38,191.6,989.91,649.18,1259.12,649.18,1259.12Z"/><g id="MOUSE_PAD" data-name="MOUSE PAD"><path class="cls-38" d="M650.09,1257.65l-.83,0c-177-9.62-413.38-63.56-481.6-79.86a14.88,14.88,0,0,1-11.16-17.52l32.36-157.84a15,15,0,0,1,14.61-11.93,15.48,15.48,0,0,1,3.63.45c192.17,47.86,380.25,65.71,433.31,70.05a15,15,0,0,1,13.68,13.91l10.85,166.86a14.94,14.94,0,0,1-14.85,15.91Z"/><path class="cls-12" d="M203.47,992a13.36,13.36,0,0,1,3.26.41c192.27,47.88,380.46,65.75,433.56,70.08a13.49,13.49,0,0,1,12.3,12.52l10.85,166.86a13.42,13.42,0,0,1-13.35,14.31l-.74,0c-176.91-9.62-413.15-63.54-481.34-79.83a13.39,13.39,0,0,1-10-15.76l32.36-157.84A13.47,13.47,0,0,1,203.47,992m0-3a16.44,16.44,0,0,0-16.08,13.13L155,1159.94a16.43,16.43,0,0,0,12.28,19.28c62.7,15,303.22,70.19,481.87,79.9l.91,0a16.43,16.43,0,0,0,16.35-17.51l-10.85-166.86a16.43,16.43,0,0,0-15.06-15.31c-52.11-4.25-240.52-22-433.07-70a16.22,16.22,0,0,0-4-.5Z"/><g id="MOUSE_PAD-2" data-name="MOUSE PAD"><path class="cls-3" d="M705.18,1291.23l-1.15,0c-218-11.86-509-78.25-592.94-98.32A21.12,21.12,0,0,1,95.25,1168l39.8-194.15A21.21,21.21,0,0,1,161,957.52c236.17,58.82,467.34,80.77,532.57,86.09A21.34,21.34,0,0,1,713,1063.38l13.34,205.26a21.21,21.21,0,0,1-21.13,22.59ZM155.78,958.88A19.23,19.23,0,0,0,137,974.24L97.21,1168.4a19.13,19.13,0,0,0,14.35,22.54c83.93,20,374.73,86.42,592.58,98.26a19.2,19.2,0,0,0,20.17-20.43L711,1063.5a19.31,19.31,0,0,0-17.6-17.89h0c-65.27-5.33-296.58-27.29-532.9-86.15A19.81,19.81,0,0,0,155.78,958.88Z"/></g></g><path id="TABLE" class="cls-11" d="M1308.27,943.25c9.33-3.79,20.64-8.42,33-13.48-53.15,11.65-111,23.38-170.67,33.93-90.92,16.07-186.13,29.39-275.59,35.52q-56.33,3.18-115.52,3-14.48-.06-28.67-.28c-178.14-6.62-381.12-38.37-531.09-66.4-33.93-6.35-65.14-12.5-92.74-18.12,29.88,17.7,61.74,39.14,64.69,51.56,5.66,23.87,72,73.21,81.71,87.07s-33.17,51.67-12.14,70.28,59.06,12.13,81.31,21.84,78.07,21,78.07,21L497,1034.28s31.15-9.46,32.32-12.33S513.63,1006,513.63,1006s505.62,7.86,513.18,27.6c3.3,8.61,42.57,6.2,85.82.75,49.7,7.95,198.89-31,217.27-48.82C1344.68,971.2,1319.77,951.23,1308.27,943.25Z"/><g id="KEYBOARD"><path class="cls-11" d="M1421,1063.93c12.13-4.21,23.84-8.62,35-13.22a5.29,5.29,0,0,0,2.49-8l-20.66-29.4a5.94,5.94,0,0,0-6.82-2.07c-11.48,4.07-23.38,8-35.61,11.75a5.3,5.3,0,0,0-3,8.17l21.82,30.67A5.94,5.94,0,0,0,1421,1063.93Z"/><path class="cls-11" d="M1457.38,1115q17.56-6.33,34.5-13.21a5.27,5.27,0,0,0,2.49-8l-24.51-34.87a5.93,5.93,0,0,0-7.1-2q-16,6.74-34.14,13.15a5.3,5.3,0,0,0-2.76,8.09l24.7,34.72A6,6,0,0,0,1457.38,1115Z"/><path class="cls-11" d="M1507.05,1185.14c16.48-5.19,28.21-9.3,34.92-11.74a5.29,5.29,0,0,0,2.71-8.05l-38.94-55.4a6,6,0,0,0-7.1-2q-16.32,6.72-33.81,13.12a5.29,5.29,0,0,0-2.68,8.07l38.31,53.84A5.91,5.91,0,0,0,1507.05,1185.14Z"/><path class="cls-11" d="M1230.1,1124.37l18.66,43.15a3.62,3.62,0,0,0,4,2c22.25-4.36,44.84-9.2,67.44-14.55a3.34,3.34,0,0,0,2.34-4.76l-21.83-41.62a3.63,3.63,0,0,0-4-1.78q-30.52,6.77-64,13A3.37,3.37,0,0,0,1230.1,1124.37Z"/><path class="cls-11" d="M1311.58,1110.26l19.72,37.61a5.87,5.87,0,0,0,6.62,2.84c15.7-3.9,31.38-8.07,46.91-12.51a5.32,5.32,0,0,0,3.29-7.91L1365.73,1094a5.88,5.88,0,0,0-6.55-2.48q-21,5.68-43.84,11A5.35,5.35,0,0,0,1311.58,1110.26Z"/><path class="cls-11" d="M1048.38,1078.62l-6-28.11a3.57,3.57,0,0,0-4-2.67c-17.46,2.2-34.23,4.22-50,6.05a3.41,3.41,0,0,0-3.09,3.84l4.43,28a3.52,3.52,0,0,0,3.93,2.85c16.42-1.78,33.73-3.77,51.68-6A3.39,3.39,0,0,0,1048.38,1078.62Z"/><path class="cls-11" d="M1190.34,1054.76l-9.86-22.8a5.81,5.81,0,0,0-6.27-3.3c-15.79,2.51-31.57,4.91-47.18,7.18a5.43,5.43,0,0,0-4.66,6.8l6.92,23.69a5.75,5.75,0,0,0,6.44,3.92c16.39-2.49,33.23-5.19,50.32-8.11A5.39,5.39,0,0,0,1190.34,1054.76Z"/><path class="cls-11" d="M1265,1040.39,1253.75,1019a5.84,5.84,0,0,0-6.25-2.91c-17.35,3.21-35,6.28-52.68,9.21a5.41,5.41,0,0,0-4.34,7.39l9.75,22.55a5.82,5.82,0,0,0,6.39,3.28c18-3.23,36.25-6.71,54.42-10.45A5.36,5.36,0,0,0,1265,1040.39Z"/><path class="cls-11" d="M1426.35,997l-11.89-16.93a5.91,5.91,0,0,0-6.64-2.14c-11.42,3.71-23.66,7.31-36.55,10.8a5.33,5.33,0,0,0-3.19,8.23l12.62,17.73a5.93,5.93,0,0,0,6.51,2.15q18.72-5.64,36.34-11.76A5.29,5.29,0,0,0,1426.35,997Z"/><path class="cls-11" d="M1071.57,1079.3c14-1.83,28.64-3.83,43.77-6a5.44,5.44,0,0,0,4.68-6.8l-7-23.79a5.74,5.74,0,0,0-6.39-3.92c-17,2.39-33.71,4.64-49.94,6.74a5.47,5.47,0,0,0-4.85,6.44l5.12,24.11a5.73,5.73,0,0,0,6.4,4.31Z"/><path class="cls-11" d="M1324.22,1026.81,1312,1007a5.88,5.88,0,0,0-6.24-2.56c-12.27,2.65-24.83,5.21-37.6,7.7a5.37,5.37,0,0,0-4,7.71l11,21a5.85,5.85,0,0,0,6.44,2.88q19.68-4.27,39.07-9A5.34,5.34,0,0,0,1324.22,1026.81Z"/><path class="cls-11" d="M1369.87,1014.58l-13-18.27a5.9,5.9,0,0,0-6.24-2.21q-11.81,2.94-24.18,5.78a5.34,5.34,0,0,0-3.6,8l11.9,19.28a5.9,5.9,0,0,0,6.48,2.5q12.9-3.33,25.48-6.85A5.32,5.32,0,0,0,1369.87,1014.58Z"/><path class="cls-11" d="M1375.94,1093.83l22.25,36a5.9,5.9,0,0,0,6.72,2.44q16.5-5,32.68-10.45a5.29,5.29,0,0,0,2.82-8.12l-24.79-34.85a5.93,5.93,0,0,0-6.66-2.1q-14.32,4.67-29.75,9.16A5.32,5.32,0,0,0,1375.94,1093.83Z"/><path class="cls-11" d="M1214.45,1110.55l-17-39.29a3.61,3.61,0,0,0-4-2c-19.26,3.34-38.22,6.39-56.61,9.18a3.37,3.37,0,0,0-2.86,4.22l11.73,40.16a3.57,3.57,0,0,0,4,2.43c20.14-3,40.94-6.36,62-10.08A3.35,3.35,0,0,0,1214.45,1110.55Z"/><path class="cls-11" d="M1150,1137.31l13.06,44.73a3.57,3.57,0,0,0,4,2.43c22.46-3.45,45.79-7.38,69.6-11.84a3.35,3.35,0,0,0,2.61-4.58l-18.72-43.31a3.6,3.6,0,0,0-4-2q-30.77,5.44-63.71,10.39A3.38,3.38,0,0,0,1150,1137.31Z"/><path class="cls-11" d="M1293.47,1094.76l-20-38.2a3.63,3.63,0,0,0-4-1.79c-20,4.17-40,8-59.82,11.6A3.35,3.35,0,0,0,1207,1071l17,39.23a3.61,3.61,0,0,0,4,2c21-3.86,42.15-8.08,63.12-12.68A3.33,3.33,0,0,0,1293.47,1094.76Z"/><path class="cls-11" d="M1403.91,1062.42l-22.24-31.27a5.92,5.92,0,0,0-6.43-2.16q-13.07,3.73-26.51,7.25a5.34,5.34,0,0,0-3.44,8l20.16,32.64a5.9,5.9,0,0,0,6.62,2.46q14.73-4.2,28.91-8.72A5.3,5.3,0,0,0,1403.91,1062.42Z"/><path class="cls-11" d="M1355.18,1076.94l-20.39-33a5.89,5.89,0,0,0-6.41-2.52c-13.23,3.26-26.64,6.37-40.12,9.33a5.36,5.36,0,0,0-3.86,7.69l17.95,34.23a5.87,5.87,0,0,0,6.52,2.87c14.5-3.36,28.84-6.9,42.92-10.64A5.33,5.33,0,0,0,1355.18,1076.94Z"/><path class="cls-11" d="M1091.49,1133.31c13.56-1.74,27.69-3.65,42.23-5.74a3.38,3.38,0,0,0,2.91-4.23l-11.72-40.12a3.58,3.58,0,0,0-4-2.43c-16.69,2.44-32.81,4.65-48.14,6.66l-9.23,1.19a3.39,3.39,0,0,0-3,4l8.57,40.3a3.54,3.54,0,0,0,4,2.68Q1082.19,1134.51,1091.49,1133.31Z"/><path class="cls-11" d="M1092.66,1141.46q-8.78,1.14-17.4,2.19a3.4,3.4,0,0,0-3,4l9.62,45.21,3.94,2.69c20.41-2.44,42.32-5.3,65.28-8.67a3.39,3.39,0,0,0,2.9-4.23l-13.08-44.78a3.58,3.58,0,0,0-4-2.43Q1115.21,1138.56,1092.66,1141.46Z"/><path class="cls-11" d="M1000.74,1155.47l7.11,45a3.51,3.51,0,0,0,3.86,2.85c18.3-1.67,37.72-3.62,58-5.91a3.4,3.4,0,0,0,3.08-4l-9.59-45.15a3.57,3.57,0,0,0-4-2.68c-19.25,2.27-37.8,4.28-55.36,6A3.41,3.41,0,0,0,1000.74,1155.47Z"/><path class="cls-11" d="M1060.06,1133.54l-8.55-40.22a3.56,3.56,0,0,0-4-2.67c-18.19,2.24-35.72,4.26-52.36,6.06a3.41,3.41,0,0,0-3.11,3.85l6.33,40.1a3.53,3.53,0,0,0,3.9,2.85c17.35-1.75,35.68-3.73,54.69-6A3.41,3.41,0,0,0,1060.06,1133.54Z"/><path class="cls-11" d="M928.15,1161.91l4.85,44.22a3.52,3.52,0,0,0,3.79,3c17.42-1.11,37.21-2.55,58.82-4.39a3.43,3.43,0,0,0,3.21-3.86l-7.08-44.83a3.53,3.53,0,0,0-3.9-2.85c-20.6,2-39.59,3.64-56.45,5A3.42,3.42,0,0,0,928.15,1161.91Z"/><path class="cls-11" d="M979.16,1098.42c-19.55,2-37.63,3.78-53.79,5.24a3.43,3.43,0,0,0-3.21,3.7l4.36,39.67a3.51,3.51,0,0,0,3.85,3c16.68-1.34,35.48-3,55.86-4.94a3.42,3.42,0,0,0,3.17-3.85l-6.31-40A3.55,3.55,0,0,0,979.16,1098.42Z"/><path class="cls-11" d="M1408.64,1146.78l32.71,53a5.9,5.9,0,0,0,6.53,2.49c14.46-3.85,27.44-7.52,38.89-10.91a5.31,5.31,0,0,0,3-8.19l-37.75-53.06a5.94,5.94,0,0,0-6.74-2.07q-16.3,5.6-33.51,10.89A5.32,5.32,0,0,0,1408.64,1146.78Z"/><path class="cls-11" d="M1088,1203.57h0a3.36,3.36,0,0,0-3,4l10.89,51.25a3.57,3.57,0,0,0,3.85,2.7q36.79-3.27,70.92-7.36a3.38,3.38,0,0,0,3-4.24l-15.39-52.69a3.56,3.56,0,0,0-4-2.43Q1121.78,1199.53,1088,1203.57Z"/><path class="cls-11" d="M1167.34,1196.57l15.52,53.13a3.58,3.58,0,0,0,3.92,2.44q41.82-5.28,79.25-11.46a3.35,3.35,0,0,0,2.69-4.59l-23.28-53.86a3.61,3.61,0,0,0-4-2q-34.62,6.52-71.23,12.16A3.37,3.37,0,0,0,1167.34,1196.57Z"/><path class="cls-11" d="M909.32,1105.08c-18.81,1.62-34.25,2.8-45.36,3.6a3.43,3.43,0,0,0-3.28,3.59l2.92,39.12a3.5,3.5,0,0,0,3.78,3.12c10.91-.65,26.92-1.69,46.88-3.21a3.43,3.43,0,0,0,3.27-3.7l-4.33-39.51A3.52,3.52,0,0,0,909.32,1105.08Z"/><path class="cls-11" d="M1010.19,1215.28l7.73,49a3.55,3.55,0,0,0,3.75,2.87q31.75-1.79,61.84-4.27a3.41,3.41,0,0,0,3.19-4l-10.79-50.72a3.55,3.55,0,0,0-3.93-2.68c-20.49,2.32-40.12,4.3-58.61,6A3.41,3.41,0,0,0,1010.19,1215.28Z"/><path class="cls-11" d="M869.05,1224.24l3.26,43.71a3.53,3.53,0,0,0,3.57,3.14q26.05,0,51.27-.44a3.44,3.44,0,0,0,3.47-3.72l-5-45.62a3.52,3.52,0,0,0-3.77-3c-21.4,1.24-38.28,2-49.38,2.34A3.44,3.44,0,0,0,869.05,1224.24Z"/><path class="cls-11" d="M915.33,1159.47c-20.12,1.53-36.28,2.58-47.29,3.24a3.43,3.43,0,0,0-3.32,3.6l3.21,43a3.5,3.5,0,0,0,3.69,3.13c10.91-.39,27.68-1.08,49-2.32a3.44,3.44,0,0,0,3.34-3.71l-4.82-43.93A3.52,3.52,0,0,0,915.33,1159.47Z"/><path class="cls-11" d="M1300.79,1168.05q-21.19,4.71-43.33,9.07a3.34,3.34,0,0,0-2.58,4.56l23.44,54.24a3.64,3.64,0,0,0,4,2c26.49-4.54,51.18-9.28,74-14.06a3.33,3.33,0,0,0,2.42-4.78l-28.88-55.07a3.62,3.62,0,0,0-4.07-1.77Q1313.44,1165.23,1300.79,1168.05Z"/><path class="cls-11" d="M934.63,1221l5.08,46.26a3.5,3.5,0,0,0,3.65,3q31.77-.79,62.11-2.32a3.42,3.42,0,0,0,3.34-3.86l-7.65-48.41a3.54,3.54,0,0,0-3.86-2.85c-21.8,1.87-41.77,3.32-59.36,4.45A3.43,3.43,0,0,0,934.63,1221Z"/><path class="cls-11" d="M980.42,1084.36l-3.76-23.81a5.7,5.7,0,0,0-6.37-4.58c-17.4,2-33.36,3.68-47.47,5.15a5.5,5.5,0,0,0-5.08,5.94l2.57,23.39a5.65,5.65,0,0,0,6.26,4.84c14.8-1.34,31.17-2.92,48.78-4.75A5.5,5.5,0,0,0,980.42,1084.36Z"/><path class="cls-11" d="M902.48,1063.2c-18.72,1.87-32.44,3.14-39.58,3.78a5.53,5.53,0,0,0-5.18,5.78l1.69,22.53a5.64,5.64,0,0,0,6.16,5c10.37-.76,24.12-1.82,40.57-3.23a5.52,5.52,0,0,0,5.2-5.95L908.8,1068A5.67,5.67,0,0,0,902.48,1063.2Z"/><path class="cls-11" d="M1339.32,1163.15l29.11,55.51a3.65,3.65,0,0,0,4,1.79c21-4.6,40.29-9.19,57.74-13.62a3.31,3.31,0,0,0,2.16-4.94l-34.59-56a3.66,3.66,0,0,0-4.13-1.53q-25.14,7.34-52,14.06A3.32,3.32,0,0,0,1339.32,1163.15Z"/><path class="cls-17" d="M1421.78,1062.1c12.13-4.21,23.84-8.62,35-13.22a5.29,5.29,0,0,0,2.49-8l-20.66-29.4a5.94,5.94,0,0,0-6.82-2.07c-11.48,4.07-23.38,8-35.61,11.75a5.3,5.3,0,0,0-3,8.17L1415,1060A5.94,5.94,0,0,0,1421.78,1062.1Z"/><path class="cls-17" d="M1458.16,1113.12q17.56-6.31,34.5-13.21a5.27,5.27,0,0,0,2.49-8l-24.51-34.87a5.93,5.93,0,0,0-7.1-2q-16,6.73-34.14,13.15a5.3,5.3,0,0,0-2.76,8.09l24.7,34.72A6,6,0,0,0,1458.16,1113.12Z"/><path class="cls-17" d="M1507.83,1183.31c16.49-5.19,28.21-9.3,34.92-11.74a5.29,5.29,0,0,0,2.71-8l-38.94-55.4a6,6,0,0,0-7.1-2q-16.32,6.72-33.81,13.12a5.29,5.29,0,0,0-2.68,8.07l38.31,53.84A5.91,5.91,0,0,0,1507.83,1183.31Z"/><path class="cls-17" d="M1230.89,1122.54l18.65,43.15a3.62,3.62,0,0,0,4,2c22.25-4.36,44.84-9.19,67.44-14.54a3.35,3.35,0,0,0,2.34-4.77l-21.83-41.62a3.62,3.62,0,0,0-4-1.78q-30.54,6.77-64,13A3.36,3.36,0,0,0,1230.89,1122.54Z"/><path class="cls-17" d="M1312.36,1108.43l19.72,37.61a5.87,5.87,0,0,0,6.62,2.84c15.7-3.9,31.38-8.07,46.91-12.51a5.32,5.32,0,0,0,3.29-7.91l-22.39-36.26a5.88,5.88,0,0,0-6.55-2.48q-21,5.68-43.84,11A5.35,5.35,0,0,0,1312.36,1108.43Z"/><path class="cls-17" d="M1049.16,1076.79l-6-28.11a3.57,3.57,0,0,0-4-2.67c-17.46,2.2-34.23,4.22-50,6a3.41,3.41,0,0,0-3.09,3.84l4.43,28a3.52,3.52,0,0,0,3.93,2.85c16.42-1.78,33.73-3.77,51.68-6A3.39,3.39,0,0,0,1049.16,1076.79Z"/><path class="cls-17" d="M1191.12,1052.93l-9.86-22.8a5.81,5.81,0,0,0-6.27-3.3c-15.79,2.51-31.57,4.91-47.18,7.18a5.43,5.43,0,0,0-4.66,6.8l6.92,23.69a5.75,5.75,0,0,0,6.44,3.92c16.39-2.49,33.23-5.19,50.32-8.11A5.39,5.39,0,0,0,1191.12,1052.93Z"/><path class="cls-17" d="M1265.74,1038.56l-11.21-21.37a5.84,5.84,0,0,0-6.25-2.91c-17.35,3.21-35,6.28-52.68,9.21a5.41,5.41,0,0,0-4.34,7.39l9.75,22.55a5.82,5.82,0,0,0,6.39,3.28c18-3.23,36.25-6.71,54.42-10.45A5.36,5.36,0,0,0,1265.74,1038.56Z"/><path class="cls-39" d="M1256.06,1037.76l-8.29-15.8a4.31,4.31,0,0,0-4.62-2.15c-12.83,2.37-25.87,4.64-39,6.81a4,4,0,0,0-3.21,5.46l7.21,16.67a4.29,4.29,0,0,0,4.72,2.43c13.33-2.39,26.8-5,40.24-7.72A4,4,0,0,0,1256.06,1037.76Z"/><path class="cls-17" d="M1427.13,995.18l-11.89-16.93a5.91,5.91,0,0,0-6.64-2.14c-11.42,3.71-23.66,7.31-36.55,10.8a5.33,5.33,0,0,0-3.19,8.23l12.62,17.73A5.93,5.93,0,0,0,1388,1015q18.72-5.64,36.34-11.76A5.29,5.29,0,0,0,1427.13,995.18Z"/><path class="cls-17" d="M1072.35,1077.47c14-1.83,28.64-3.83,43.77-6a5.44,5.44,0,0,0,4.68-6.8l-7-23.79a5.74,5.74,0,0,0-6.39-3.92c-17,2.39-33.71,4.64-49.94,6.74a5.47,5.47,0,0,0-4.85,6.44l5.12,24.11a5.73,5.73,0,0,0,6.4,4.31Z"/><path class="cls-17" d="M1325,1025l-12.21-19.77a5.9,5.9,0,0,0-6.24-2.56c-12.27,2.65-24.83,5.21-37.6,7.7a5.37,5.37,0,0,0-4,7.71l11,21a5.85,5.85,0,0,0,6.44,2.88c13.12-2.85,26.17-5.83,39.07-9A5.35,5.35,0,0,0,1325,1025Z"/><path class="cls-17" d="M1370.65,1012.75l-13-18.27a5.9,5.9,0,0,0-6.24-2.21q-11.81,2.94-24.18,5.78a5.34,5.34,0,0,0-3.6,8l11.9,19.28a5.9,5.9,0,0,0,6.48,2.5q12.9-3.33,25.48-6.85A5.32,5.32,0,0,0,1370.65,1012.75Z"/><path class="cls-17" d="M1376.72,1092l22.25,36a5.9,5.9,0,0,0,6.72,2.44q16.5-5,32.68-10.45a5.29,5.29,0,0,0,2.82-8.12L1416.4,1077a5.93,5.93,0,0,0-6.66-2.1q-14.33,4.66-29.75,9.16A5.32,5.32,0,0,0,1376.72,1092Z"/><path class="cls-17" d="M1215.23,1108.72l-17-39.29a3.61,3.61,0,0,0-4-2c-19.26,3.34-38.22,6.39-56.61,9.18a3.37,3.37,0,0,0-2.86,4.22l11.73,40.16a3.57,3.57,0,0,0,4,2.43c20.14-3,40.94-6.36,62-10.08A3.35,3.35,0,0,0,1215.23,1108.72Z"/><path class="cls-13" d="M1209.31,1106.75l-14.48-33.49a3.09,3.09,0,0,0-3.37-1.74c-16.41,2.85-32.57,5.45-48.24,7.83a2.87,2.87,0,0,0-2.45,3.59l10,34.23a3.06,3.06,0,0,0,3.41,2.08c17.17-2.57,34.9-5.43,52.87-8.59A2.86,2.86,0,0,0,1209.31,1106.75Z"/><path class="cls-17" d="M1150.81,1135.48l13.06,44.73a3.57,3.57,0,0,0,4,2.43c22.46-3.45,45.79-7.38,69.6-11.84a3.35,3.35,0,0,0,2.61-4.58l-18.72-43.31a3.62,3.62,0,0,0-4-2q-30.77,5.45-63.71,10.39A3.38,3.38,0,0,0,1150.81,1135.48Z"/><path class="cls-17" d="M1294.25,1092.93l-20-38.2a3.63,3.63,0,0,0-4-1.79c-20,4.17-40,8-59.82,11.61a3.34,3.34,0,0,0-2.64,4.57l17,39.23a3.61,3.61,0,0,0,4,2c21-3.86,42.15-8.08,63.12-12.68A3.33,3.33,0,0,0,1294.25,1092.93Z"/><path class="cls-17" d="M1404.69,1060.59l-22.24-31.27a5.92,5.92,0,0,0-6.43-2.16q-13.07,3.73-26.51,7.25a5.34,5.34,0,0,0-3.44,8l20.16,32.64a5.9,5.9,0,0,0,6.62,2.46q14.73-4.2,28.91-8.72A5.3,5.3,0,0,0,1404.69,1060.59Z"/><path class="cls-17" d="M1356,1075.11l-20.39-33a5.89,5.89,0,0,0-6.41-2.52c-13.23,3.26-26.64,6.37-40.12,9.33a5.36,5.36,0,0,0-3.86,7.69l18,34.23a5.87,5.87,0,0,0,6.52,2.87c14.5-3.36,28.84-6.9,42.92-10.64A5.33,5.33,0,0,0,1356,1075.11Z"/><path class="cls-17" d="M1092.27,1131.48c13.56-1.74,27.69-3.65,42.23-5.74a3.38,3.38,0,0,0,2.91-4.23l-11.72-40.12a3.58,3.58,0,0,0-4-2.43c-16.69,2.44-32.81,4.66-48.14,6.66l-9.23,1.19a3.39,3.39,0,0,0-3,4l8.57,40.3a3.54,3.54,0,0,0,3.95,2.68Q1083,1132.68,1092.27,1131.48Z"/><path class="cls-27" d="M1093.79,1126.12c10.67-1.37,21.78-2.87,33.22-4.51a2.67,2.67,0,0,0,2.29-3.33l-9.22-31.56a2.83,2.83,0,0,0-3.15-1.91c-13.12,1.92-25.8,3.66-37.86,5.24l-7.26.94a2.66,2.66,0,0,0-2.37,3.14l6.74,31.7a2.78,2.78,0,0,0,3.11,2.11Q1086.47,1127.05,1093.79,1126.12Z"/><path class="cls-17" d="M1093.44,1139.63q-8.78,1.14-17.4,2.19a3.38,3.38,0,0,0-3,4l9.61,45.21,3.94,2.69c20.41-2.44,42.32-5.3,65.28-8.67a3.39,3.39,0,0,0,2.9-4.23L1141.66,1136a3.58,3.58,0,0,0-4-2.43Q1116,1136.73,1093.44,1139.63Z"/><path class="cls-17" d="M1001.52,1153.64l7.11,45a3.51,3.51,0,0,0,3.86,2.85c18.3-1.66,37.72-3.62,58-5.91a3.4,3.4,0,0,0,3.08-4l-9.59-45.15a3.57,3.57,0,0,0-4-2.68c-19.25,2.27-37.8,4.28-55.36,6A3.41,3.41,0,0,0,1001.52,1153.64Z"/><path class="cls-17" d="M1060.84,1131.71l-8.55-40.22a3.56,3.56,0,0,0-4-2.67c-18.19,2.24-35.72,4.26-52.36,6.07a3.39,3.39,0,0,0-3.11,3.84l6.33,40.1a3.53,3.53,0,0,0,3.9,2.85c17.35-1.75,35.68-3.73,54.69-6A3.41,3.41,0,0,0,1060.84,1131.71Z"/><path class="cls-17" d="M928.93,1160.08l4.85,44.22a3.52,3.52,0,0,0,3.79,3c17.42-1.11,37.21-2.55,58.82-4.39a3.43,3.43,0,0,0,3.21-3.85l-7.08-44.84a3.53,3.53,0,0,0-3.9-2.85c-20.6,2-39.59,3.64-56.45,5A3.42,3.42,0,0,0,928.93,1160.08Z"/><path class="cls-17" d="M979.94,1096.59c-19.55,2.05-37.63,3.78-53.79,5.24a3.43,3.43,0,0,0-3.21,3.7l4.36,39.67a3.51,3.51,0,0,0,3.85,3c16.68-1.34,35.48-3,55.86-4.94a3.42,3.42,0,0,0,3.17-3.85l-6.31-40A3.55,3.55,0,0,0,979.94,1096.59Z"/><path class="cls-17" d="M1409.42,1145l32.71,53a5.9,5.9,0,0,0,6.53,2.49c14.46-3.85,27.44-7.52,38.89-10.91a5.31,5.31,0,0,0,3-8.19l-37.75-53.06a5.94,5.94,0,0,0-6.74-2.07q-16.3,5.6-33.51,10.89A5.32,5.32,0,0,0,1409.42,1145Z"/><path class="cls-17" d="M1088.8,1201.74h0a3.36,3.36,0,0,0-3,4l10.89,51.25a3.57,3.57,0,0,0,3.85,2.7q36.8-3.27,70.92-7.36a3.38,3.38,0,0,0,3-4.24L1159,1195.37a3.56,3.56,0,0,0-4-2.43Q1122.57,1197.69,1088.8,1201.74Z"/><path class="cls-17" d="M1168.12,1194.74l15.52,53.13a3.58,3.58,0,0,0,3.92,2.44q41.82-5.28,79.26-11.45a3.36,3.36,0,0,0,2.68-4.6l-23.28-53.86a3.63,3.63,0,0,0-4-2q-34.62,6.53-71.23,12.16A3.37,3.37,0,0,0,1168.12,1194.74Z"/><path class="cls-17" d="M910.1,1103.25c-18.81,1.62-34.25,2.8-45.36,3.6a3.43,3.43,0,0,0-3.28,3.6l2.92,39.11a3.5,3.5,0,0,0,3.78,3.12c10.91-.65,26.93-1.69,46.88-3.21a3.43,3.43,0,0,0,3.27-3.7L914,1106.26A3.52,3.52,0,0,0,910.1,1103.25Z"/><path class="cls-17" d="M1011,1213.45l7.73,49a3.56,3.56,0,0,0,3.76,2.87q31.74-1.79,61.83-4.27a3.41,3.41,0,0,0,3.19-4l-10.79-50.72a3.55,3.55,0,0,0-3.93-2.68c-20.49,2.32-40.12,4.3-58.61,6A3.4,3.4,0,0,0,1011,1213.45Z"/><path class="cls-17" d="M869.83,1222.41l3.26,43.71a3.51,3.51,0,0,0,3.57,3.14q26.05,0,51.27-.44a3.44,3.44,0,0,0,3.47-3.72l-5-45.62a3.52,3.52,0,0,0-3.77-3c-21.4,1.24-38.28,2-49.38,2.35A3.43,3.43,0,0,0,869.83,1222.41Z"/><path class="cls-17" d="M916.11,1157.64c-20.12,1.53-36.28,2.58-47.29,3.24a3.43,3.43,0,0,0-3.32,3.6l3.21,43a3.5,3.5,0,0,0,3.69,3.13c10.91-.38,27.68-1.08,49-2.32a3.44,3.44,0,0,0,3.34-3.7L920,1160.65A3.52,3.52,0,0,0,916.11,1157.64Z"/><path class="cls-17" d="M1301.57,1166.22q-21.19,4.71-43.33,9.07a3.34,3.34,0,0,0-2.58,4.56l23.44,54.25a3.65,3.65,0,0,0,4,2c26.49-4.54,51.18-9.28,74-14.06a3.33,3.33,0,0,0,2.42-4.78l-28.88-55.07a3.62,3.62,0,0,0-4.07-1.77Q1314.22,1163.4,1301.57,1166.22Z"/><path class="cls-17" d="M935.41,1219.19l5.08,46.26a3.5,3.5,0,0,0,3.65,3q31.77-.79,62.11-2.32a3.42,3.42,0,0,0,3.34-3.86l-7.65-48.4a3.54,3.54,0,0,0-3.86-2.86c-21.8,1.87-41.77,3.32-59.36,4.45A3.43,3.43,0,0,0,935.41,1219.19Z"/><path class="cls-17" d="M981.2,1082.53l-3.76-23.81a5.7,5.7,0,0,0-6.37-4.58c-17.4,2-33.36,3.68-47.47,5.15a5.5,5.5,0,0,0-5.08,5.94l2.57,23.39a5.65,5.65,0,0,0,6.26,4.84c14.8-1.34,31.17-2.92,48.78-4.75A5.5,5.5,0,0,0,981.2,1082.53Z"/><path class="cls-40" d="M931.23,1082.53a7.16,7.16,0,0,1-7.2-6.2l-2.57-23.39a6.71,6.71,0,0,1,1.47-5,7.28,7.28,0,0,1,5-2.65c15.64-1.63,31.61-3.36,47.45-5.15a7.16,7.16,0,0,1,8,5.84l3.76,23.8a6.63,6.63,0,0,1-1.32,5.13,7.39,7.39,0,0,1-5.07,2.79c-16.23,1.68-32.65,3.28-48.8,4.75Zm44.95-39.39-.51,0c-15.86,1.79-31.83,3.52-47.48,5.15a4.28,4.28,0,0,0-2.92,1.56,3.65,3.65,0,0,0-.82,2.73L927,1076a4.18,4.18,0,0,0,4.63,3.51c16.15-1.47,32.56-3.06,48.77-4.74a4.39,4.39,0,0,0,3-1.64,3.71,3.71,0,0,0,.74-2.83l-3.76-23.8A4.19,4.19,0,0,0,976.18,1043.14Z"/><path class="cls-17" d="M903.26,1061.37c-18.72,1.87-32.44,3.14-39.58,3.78a5.53,5.53,0,0,0-5.18,5.78l1.69,22.53a5.64,5.64,0,0,0,6.16,5c10.37-.76,24.12-1.82,40.57-3.23a5.51,5.51,0,0,0,5.2-6l-2.54-23.11A5.67,5.67,0,0,0,903.26,1061.37Z"/><path class="cls-17" d="M1340.1,1161.32l29.11,55.51a3.65,3.65,0,0,0,4,1.79c21-4.6,40.29-9.19,57.74-13.61a3.32,3.32,0,0,0,2.16-5l-34.59-56a3.64,3.64,0,0,0-4.13-1.52q-25.14,7.32-52,14A3.32,3.32,0,0,0,1340.1,1161.32Z"/><path class="cls-40" d="M1282.43,1220a5.11,5.11,0,0,1-4.7-3l-23.45-54.24a4.7,4.7,0,0,1,.16-4.06,5,5,0,0,1,3.51-2.58c14.81-2.91,29.38-6,43.3-9.06h0c8.27-1.84,16.65-3.78,24.92-5.76a5.12,5.12,0,0,1,5.75,2.54l28.88,55.07a4.67,4.67,0,0,1,.09,4.2,5,5,0,0,1-3.53,2.74c-24.1,5-49,9.79-74,14.07A5.24,5.24,0,0,1,1282.43,1220Zm19.47-70c-13.94,3.1-28.53,6.16-43.37,9.08a2,2,0,0,0-1.44,1,1.69,1.69,0,0,0,0,1.47l23.44,54.24a2.12,2.12,0,0,0,2.32,1.16c25-4.28,49.88-9,74-14a2,2,0,0,0,1.43-1.09,1.69,1.69,0,0,0,0-1.53l-28.88-55.07a2.14,2.14,0,0,0-2.39-1c-8.29,2-16.69,3.92-25,5.77Z"/></g><g id="LEFR_ARM" data-name="LEFR ARM"><path class="cls-41" d="M935.42,996.52s67.24-5.27,85-9.32c0,0-8.32,35.6,6.35,38.43S1249,991.08,1259.11,976s-61.08-90.72-66.74-96.38-46.52-21.85-46.52-21.85-18.2-36.13-23.86-39.1-47.73-42.6-61.08-55.95-113.79-103-118.25-105.58S935.42,996.52,935.42,996.52Z"/><path class="cls-16" d="M945.36,746.12s8.36,133.49,17.26,132.68S1045.13,844,1065,846.44c0,0-56.09,29.12-59.8,36.81s4.83,10.11,4.83,10.11,82.07-26.89,95-25c0,0-78.47,27.8-89.8,44.39s-34.38,53.79-34.38,53.79,60.67-48.94,74-51.37S1128.46,893,1147.07,899s42.06,23.74,42.06,34.49-168.67,53.69-168.67,53.69-33,6-85,9.32C935.42,996.52,937.4,756.64,945.36,746.12Z"/><path class="cls-17" d="M1130.89,901.18c52.31,0,69.84-.54,85.48,20.76s35.87,48.54,25.35,57.71,3.5,12.14-57.44,27.24-133.21,26.19-140.49,18.89-42.88-30.49-29.94-56.65S1078.57,901.18,1130.89,901.18Z"/><path class="cls-42" d="M1246.72,982l-34.26-57.1a21.81,21.81,0,0,0-24.65-9.74h0a6.49,6.49,0,0,1-6.09-1.3,17.83,17.83,0,0,0-17-3.56l-2.17.68a32.44,32.44,0,0,0-8,3.78,13.83,13.83,0,0,1-11.51,1.51l-6-1.81c-9.73-2.94-20.54-.8-27.86,6.27l-.07.07a15.37,15.37,0,0,1-16.47,3.46l-1.18-.47A31.28,31.28,0,0,0,1054,935l-38.85,49.82a18.56,18.56,0,0,0-3.92,10.61l-1.26,51.64a16.33,16.33,0,0,0,16.3,17.09h.54a22.58,22.58,0,0,0,22.22-18.5l7.15-46.43,33-35.08h0l-17.12,43.38a26.15,26.15,0,0,0-1.82,10.92l3,66a22.07,22.07,0,0,0,19.43,21.88,21,21,0,0,0,2.65.16,22.06,22.06,0,0,0,22.06-21.06l11.13-70.39,13.05-38.31c1.7,16,3.84,27.66,3.84,27.66l-10.39,60.63c-2.22,14.41,6.14,24.67,15.91,28.38a22.53,22.53,0,0,0,9.49,1.48,25.23,25.23,0,0,0,14.75-6.68c4.16-3.77,7.15-8.75,7.61-14l14.59-70.76a18.57,18.57,0,0,0,.31-7.12l-4.2-27.93h0v0c7.41,12.82,13.49,23.22,13.49,23.22l.35,20.93c1.08,13.7,4.09,22.9,15.7,24.81a11.54,11.54,0,0,0,1.52.16c.24,0,.47,0,.7,0a13.71,13.71,0,0,0,13-9.23l10.21-29.32A20.27,20.27,0,0,0,1246.72,982Z"/><path class="cls-21" d="M1099.73,937.51l-6.61,16.73-3.93,10-33,35.08-7.15,46.43a22.58,22.58,0,0,1-22.22,18.5h0l3.74-6.41a30.89,30.89,0,0,0,3.62-9.61l9.95-50.5a22,22,0,0,1,6.08-11.3Z"/><path class="cls-21" d="M1149.11,1070.77l1.88,22.69c-9.77-3.71-18.13-14-15.91-28.38l10.39-60.63s-1.79-9.75-3.4-23.69a.89.89,0,0,0-1.73-.19l-11.76,34.53-11.13,70.39a22.06,22.06,0,0,1-22.06,21.06,21,21,0,0,1-2.65-.16h0a70.6,70.6,0,0,0,15.19-35.94l5.92-49.16a26.13,26.13,0,0,1,2.19-7.75l24.2-52.79,0,0,4.12,8,9.17,26.61a44.93,44.93,0,0,1,2,21l-6.12,43.1A50.12,50.12,0,0,0,1149.11,1070.77Z"/><path class="cls-21" d="M1224.6,1037.64a11.54,11.54,0,0,1-1.52-.16c-11.61-1.91-14.62-11.11-15.7-24.81l-.35-20.93s-6.08-10.4-13.49-23.22v0l-6.36-35L1213,973a47.48,47.48,0,0,1,7.28,32.32l-1.63,12a24.39,24.39,0,0,0,3.31,16Z"/><path class="cls-3" d="M1176,871.58a1.07,1.07,0,0,1-.39-.07l-55.33-23.07a1,1,0,0,1,.77-1.85l55.33,23.07a1,1,0,0,1-.38,1.92Z"/><path class="cls-3" d="M1027.46,1065.71h-.64a1.5,1.5,0,0,1,0-3h0c17,.35,20.15-14.72,20.28-15.36l7.65-48.76,33.29-35.41a1.5,1.5,0,1,1,2.18,2.05L1057.63,1000l-7.52,47.9C1050.07,1048.08,1046.5,1065.71,1027.46,1065.71Z"/><path class="cls-3" d="M1093.36,1107.9h-.64a1.5,1.5,0,0,1-1.48-1.52,1.54,1.54,0,0,1,1.53-1.48c16.31.27,20.58-10.22,22.39-14.69l.06-.14c1.21-3,7.76-46.6,11.87-75.17a1.5,1.5,0,0,1,3,.42c-1,7.32-10.32,71.57-12.06,75.87l-.06.15C1116.1,1095.88,1111.24,1107.9,1093.36,1107.9Z"/></g><g id="RIGHT_ARM" data-name="RIGHT ARM"><path class="cls-43" d="M585.63,649.58S409.27,826.48,381.17,854.53,357,896.06,357,896.06,317.58,925.18,304,937c-2.95,2.59-5.43,8.71-7.51,16.7-7.46,28.79-9.67,81.89-9.67,81.89l190.67-11.85,11.58-21.34s.35-7.63.34-17.18c0-14.22-.78-32.71-4.65-36.7-6.48-6.66-55.56-49.81-55.56-49.81l84.14,45.15s-10.79-38.68-17.8-48.92-35.76-38.29-35.76-38.29,66.14,43.68,69.56,50.69,37.93,41.18,37.93,41.18L593.72,793.9l-2.13-72.15Z"/><path class="cls-16" d="M591.59,721.75l2.13,72.15L567.29,948.56s-34.51-34.17-37.93-41.18-69.56-50.69-69.56-50.69,28.75,28,35.76,38.29,17.8,48.92,17.8,48.92l-84.14-45.15s49.08,43.15,55.56,49.81c3.87,4,5.69,18.76,5.69,33,39.25,4.6,78.47,8.24,122.46,11.12Z"/><path class="cls-44" d="M484.78,948.56s35.13,59.14,37,64.53-34.83,8.86-34.83,8.86S466.72,958.88,484.78,948.56Z"/><g id="RIGHT_HAND" data-name="RIGHT HAND"><path class="cls-17" d="M389,1154.34l-41.24-30.4s-16-95.32-16.48-96.14c-.33-.58,61.05-8,97.5-12.3a44.87,44.87,0,0,1,41.76,18.4l52.81,73.6a56.24,56.24,0,0,1,10.41,36.63h0a17.94,17.94,0,0,1-15,16.48l-62.22,10.07A89.62,89.62,0,0,1,389,1154.34Z"/><path class="cls-45" d="M445.34,1059.61l36.08,54.1a13.56,13.56,0,0,0,13,6l17.95-2.35a8.62,8.62,0,0,0,6.07-13.08L485,1049.59a9.21,9.21,0,0,0-9.19-4.35l-25.88,3.82A6.82,6.82,0,0,0,445.34,1059.61Z"/><path class="cls-27" d="M382.05,1065.9,424.67,1126a7.57,7.57,0,0,0,7.08,3.06l27.71-3.42a5.87,5.87,0,0,0,4.44-9l-40.35-62a2.81,2.81,0,0,0-2.75-1.23l-35.31,4.91A4.8,4.8,0,0,0,382.05,1065.9Z"/><path class="cls-46" d="M331.24,1126.67l-16.25,4-9.37,2.28a18,18,0,0,1-19.21-7.37l-23.21-34a28.51,28.51,0,0,1-1.91-28.88l11.3-22.35a32.83,32.83,0,0,1,11-18.38c.66-.55,1.33-1.08,2-1.58L301.52,1009l4.21-3L318,1048.81l-2,4.31-12.68,27.74,5.94,13.07,18.61,3.55Z"/><path class="cls-21" d="M333.7,1032.82c-2.46-5,126.1-22.49,126.1-22.49l-40.69-38.27L339,975l-18.45,14.31Z"/><path class="cls-47" d="M523.7,1104.82a13,13,0,0,1-7.28,2.22h-.87a36.2,36.2,0,0,1-32.48-20.23l-25.82-52.53-67-71.53c0-.19,10.09-4.8,20.53-9.51l4.59-2.07A29.63,29.63,0,0,1,448,956.78l54.82,52.45a15.4,15.4,0,0,1,4.12,6.78l21.91,74.44A12.93,12.93,0,0,1,523.7,1104.82Z"/><path class="cls-21" d="M331.24,1126.67l-16.25,4-35.54-53.72a16,16,0,0,1-2.48-11.21l6.62-43.75c.66-.55,1.33-1.08,2-1.58L301.52,1009,316,1053.12l-12.68,27.74,5.94,13.07,18.61,3.55Z"/><path class="cls-48" d="M358.73,1133.59a1.42,1.42,0,0,0-.25.12l-.25.1a22.07,22.07,0,0,1-27.44-8.24c-2.88-4.47-5.81-9-7.92-12.54a40.21,40.21,0,0,1-5-12.77c-3.54-16.87-12.11-60.94-16.48-83.38a34.23,34.23,0,0,1,4.9-25.12l.88-1.36a26.52,26.52,0,0,1,20-12h0a26.11,26.11,0,0,1,11.95,1.72l4.33,1.69L361.6,1088l7.61,20.2A20.1,20.1,0,0,1,358.73,1133.59Z"/><path class="cls-21" d="M358.73,1133.59a1.42,1.42,0,0,0-.25.12l-.25.1c.23-.83.45-1.68.68-2.53a35,35,0,0,0-2.52-24.64l-7-14a11.22,11.22,0,0,1-.95-2.81l-21.31-111.4h0a26.11,26.11,0,0,1,11.95,1.72l4.33,1.69L361.6,1088l7.61,20.2A20.1,20.1,0,0,1,358.73,1133.59Z"/><path class="cls-21" d="M523.7,1104.82a13,13,0,0,1-7.28,2.22h-.87a36.18,36.18,0,0,1-32.47-20.22l-25.83-52.54-67-71.53c0-.19,10.09-4.8,20.53-9.51,13.46,13.16,44.14,45.1,59.26,60.89a59.15,59.15,0,0,1,13,21l13.19,37a55.91,55.91,0,0,0,17.91,25Z"/><path class="cls-49" d="M452.13,1100.57a23.42,23.42,0,0,1-17.2,22.53,24.45,24.45,0,0,1-4.06.74,23.38,23.38,0,0,1-24.92-18l-11-47.09-14.73-53.06L339,974.94l10.4-11.09,6.36-6.78a30.86,30.86,0,0,1,39.3-4.78l6.41,4.16a78.88,78.88,0,0,1,34.66,51.9l7.75,42,7.93,46.25A23.53,23.53,0,0,1,452.13,1100.57Z"/><path class="cls-21" d="M434.93,1123.1a24.45,24.45,0,0,1-4.06.74,23.38,23.38,0,0,1-24.92-18l-11-47.09-14.73-53.06L339,974.94l10.4-11.09,32.18,20.3a35.32,35.32,0,0,1,15.64,22.17L418,1099.27a33.3,33.3,0,0,0,9.58,16.87Z"/></g><path class="cls-27" d="M535.07,757.45c22.26-26.37,12.28-50.79,5.08-62.25-20.38,20.44-45.21,45.34-69.28,69.46C486,773,513.83,782.6,535.07,757.45Z"/><path class="cls-50" d="M489.09,795.2,461.6,774l-12.47,12.5,26.48,22.23Z"/><path class="cls-3" d="M327.12,919.56a1,1,0,0,1-.81-.41,1,1,0,0,1,.22-1.4l84.58-61.2a1,1,0,1,1,1.17,1.62L327.7,919.38A1,1,0,0,1,327.12,919.56Z"/><path class="cls-3" d="M357,897.06a1,1,0,0,1-1-.9c-.07-.67-1.3-16.51,24.5-42.34s54.87-54.94,54.87-54.94a1,1,0,0,1,1.41,1.41s-29.09,29.16-54.86,55C356.73,880.4,357.94,895.81,358,896a1,1,0,0,1-.9,1.09Z"/><path class="cls-3" d="M512.32,1109c-7.72,0-18.06-3.27-27.84-16.79-7.86-10.87-15.87-29.15-21.72-42.5-2.85-6.5-5.31-12.12-6.8-14.63a1.5,1.5,0,1,1,2.58-1.53c1.58,2.67,4,8.09,7,15,5.79,13.22,13.73,31.33,21.41,41.94,17.18,23.77,35.25,13.55,36,13.1a1.5,1.5,0,1,1,1.53,2.59A26.15,26.15,0,0,1,512.32,1109Z"/><path class="cls-3" d="M428.15,1125.23a23.53,23.53,0,0,1-13.89-4c-7.9-5.6-10.54-16-11.95-24.44-2.41-14.37-19-74.32-19.13-74.93a1.5,1.5,0,0,1,2.89-.8c.69,2.48,16.76,60.71,19.19,75.24,1.32,7.86,3.74,17.52,10.74,22.48,4.65,3.28,10.75,4.21,18.67,2.82,17.25-3,15.69-24,15.62-24.91a1.5,1.5,0,1,1,3-.25c0,.25,1.86,24.62-18.09,28.12A41.34,41.34,0,0,1,428.15,1125.23Z"/><path class="cls-3" d="M348.93,1137c-5.75,0-12.91-1.91-18.87-9.42-11.14-14-13.38-25.31-14.22-29.55l-.12-.61c-.76-3.71-6.56-32.8-6.61-33.09a1.5,1.5,0,1,1,2.94-.59c.06.3,5.85,29.37,6.61,33.08l.12.63c.81,4,2.94,14.8,13.63,28.27s25.53,6.56,25.68,6.49a1.51,1.51,0,0,1,1.29,2.72A27.36,27.36,0,0,1,348.93,1137Z"/></g><g id="TECH"><polygon class="cls-51" points="1395.42 748.43 1353.73 748.43 1353.73 745.43 1392.42 745.43 1392.42 252.03 1350.58 252.03 1350.58 249.03 1395.42 249.03 1395.42 748.43"/><rect class="cls-52" x="1358.31" y="473.28" width="8.73" height="30.94"/><rect class="cls-52" x="1341.19" y="473.28" width="8.73" height="30.94"/><rect class="cls-51" x="1324.08" y="473.28" width="8.73" height="30.94"/><rect class="cls-51" x="1306.96" y="473.28" width="8.73" height="30.94"/><rect class="cls-51" x="1289.85" y="473.28" width="8.73" height="30.94"/><rect class="cls-51" x="1272.73" y="473.28" width="8.73" height="30.94"/><rect class="cls-32" x="1272.73" y="313.4" width="94.3" height="145.29"/><path class="cls-51" d="M1272.73,313.63H1367V298.42h-79.09a15.21,15.21,0,0,0-15.21,15.21Z"/><path class="cls-12" d="M1328.62,326.8h25.71a.92.92,0,0,0,.92-.91h0a.92.92,0,0,0-.92-.92h-25.71a.92.92,0,0,0-.92.92h0A.92.92,0,0,0,1328.62,326.8Z"/><path class="cls-53" d="M1341.48,347.46a6.94,6.94,0,1,0,6.94-6.94A6.94,6.94,0,0,0,1341.48,347.46Z"/><path class="cls-12" d="M1298.23,345.09h35.69a.92.92,0,0,0,.91-.92h0a.92.92,0,0,0-.91-.92h-35.69a.93.93,0,0,0-.92.92h0A.92.92,0,0,0,1298.23,345.09Z"/><path class="cls-12" d="M1323,351.27h10.88a.92.92,0,0,0,.91-.92h0a.91.91,0,0,0-.91-.91H1323a.92.92,0,0,0-.92.91h0A.92.92,0,0,0,1323,351.27Z"/><path class="cls-53" d="M1341.48,377.31a6.94,6.94,0,1,0,6.94-6.94A6.93,6.93,0,0,0,1341.48,377.31Z"/><path class="cls-12" d="M1298.23,374.94h35.69a.92.92,0,0,0,.91-.92h0a.92.92,0,0,0-.91-.92h-35.69a.92.92,0,0,0-.92.92h0A.93.93,0,0,0,1298.23,374.94Z"/><path class="cls-12" d="M1297.77,381.12h36.15a.92.92,0,0,0,.91-.92h0a.91.91,0,0,0-.91-.91h-36.15a.92.92,0,0,0-.92.91h0A.92.92,0,0,0,1297.77,381.12Z"/><path class="cls-53" d="M1341.48,407.16a6.94,6.94,0,1,0,6.94-6.94A6.94,6.94,0,0,0,1341.48,407.16Z"/><path class="cls-12" d="M1298.23,404.79h35.69a.92.92,0,0,0,.91-.92h0a.92.92,0,0,0-.91-.92h-35.69a.92.92,0,0,0-.92.92h0A.93.93,0,0,0,1298.23,404.79Z"/><path class="cls-12" d="M1308.2,411h25.72a.92.92,0,0,0,.91-.92h0a.92.92,0,0,0-.91-.92H1308.2a.92.92,0,0,0-.92.92h0A.92.92,0,0,0,1308.2,411Z"/><path class="cls-53" d="M1341.48,437a6.94,6.94,0,1,0,6.94-6.95A6.94,6.94,0,0,0,1341.48,437Z"/><path class="cls-12" d="M1298.23,434.63h35.69a.91.91,0,0,0,.91-.91h0a.92.92,0,0,0-.91-.92h-35.69a.92.92,0,0,0-.92.92h0A.92.92,0,0,0,1298.23,434.63Z"/><path class="cls-12" d="M1308.2,440.82h25.72a.92.92,0,0,0,.91-.92h0a.92.92,0,0,0-.91-.92H1308.2a.92.92,0,0,0-.92.92h0A.92.92,0,0,0,1308.2,440.82Z"/><path class="cls-51" d="M1233.65,343.83A17.38,17.38,0,1,1,1251,326.45,17.4,17.4,0,0,1,1233.65,343.83Zm0-32.76A15.38,15.38,0,1,0,1249,326.45,15.4,15.4,0,0,0,1233.65,311.07Z"/><path class="cls-53" d="M1160.38,326.45a16.38,16.38,0,1,0,16.38-16.38A16.38,16.38,0,0,0,1160.38,326.45Z"/><path class="cls-53" d="M1103.48,326.45a16.38,16.38,0,1,0,16.38-16.38A16.38,16.38,0,0,0,1103.48,326.45Z"/><path class="cls-53" d="M1046.58,326.45A16.39,16.39,0,1,0,1063,310.07,16.38,16.38,0,0,0,1046.58,326.45Z"/><polygon class="cls-51" points="180.33 767.98 130.18 767.98 130.18 229.48 183.74 229.48 183.74 232.48 133.18 232.48 133.18 764.98 180.33 764.98 180.33 767.98"/><rect class="cls-32" x="164.56" y="529.1" width="155.96" height="74.04"/><path class="cls-51" d="M164.59,495.29h142a13.85,13.85,0,0,1,13.85,13.85v19a0,0,0,0,1,0,0H164.59a0,0,0,0,1,0,0V495.29a0,0,0,0,1,0,0Z"/><path class="cls-12" d="M172.6,550.3H304.67c.56,0,1-.83,1-1.84h0c0-1-.46-1.85-1-1.85H172.6c-.56,0-1,.83-1,1.85h0C171.58,549.47,172,550.3,172.6,550.3Z"/><rect class="cls-32" x="164.56" y="630.91" width="155.96" height="74.04"/><path class="cls-12" d="M172.61,654.14H304.73c.56,0,1-.83,1-1.84h0c0-1-.46-1.85-1-1.85H172.61c-.57,0-1,.83-1,1.85h0C171.59,653.31,172,654.14,172.61,654.14Z"/><path class="cls-12" d="M172.61,681H304.73c.56,0,1-.83,1-1.84h0c0-1-.46-1.85-1-1.85H172.61c-.57,0-1,.83-1,1.85h0C171.59,680.12,172,681,172.61,681Z"/><path class="cls-11" d="M313.63,360.92a74.73,74.73,0,0,1-21.95,53c-.77.77-1.54,1.51-2.33,2.2A74.42,74.42,0,0,1,249.9,435a75.55,75.55,0,0,1-22.47,0,75,75,0,1,1,86.2-74.12Z"/><circle class="cls-32" cx="238.67" cy="351.89" r="29.26"/><path class="cls-32" d="M289.35,416.13A74.42,74.42,0,0,1,249.9,435H227.43A74.6,74.6,0,0,1,188,416.16a15.23,15.23,0,0,1,8.27-10.79l32.49-14.78a24,24,0,0,1,19.87,0l32.48,14.78A15.16,15.16,0,0,1,289.35,416.13Z"/><path class="cls-52" d="M238.67,436.88a78.6,78.6,0,0,1-11.39-.85,76,76,0,1,1,65.11-21.4c-.95.95-1.68,1.64-2.38,2.25a75.3,75.3,0,0,1-40,19.15A78.46,78.46,0,0,1,238.67,436.88Zm0-149.93a74,74,0,0,0-11.09,147.1,74.88,74.88,0,0,0,22.17,0,73.31,73.31,0,0,0,38.93-18.66c.68-.6,1.38-1.26,2.29-2.17A74,74,0,0,0,238.67,287Z"/><path class="cls-51" d="M286.27,474.17H164.56a1,1,0,0,1,0-2H286.27a1,1,0,0,1,0,2Z"/><path class="cls-51" d="M222.43,459H164.56a1,1,0,1,1,0-2h57.87a1,1,0,1,1,0,2Z"/><g class="cls-54"><path class="cls-55" d="M616.76,798.75H533.35V784.06h82.29A67.3,67.3,0,0,0,656.14,674l-.21-.24a81.77,81.77,0,0,0-85.1-28.92L565,646.35l-2.63-5.4A77.81,77.81,0,0,0,492,597a78.72,78.72,0,0,0-76.4,61.3l-1.38,6.22-6.35-.48c-1.78-.13-3.25-.2-4.64-.2a60.13,60.13,0,1,0,0,120.26h68.58v14.69H403.24a74.82,74.82,0,0,1-.44-149.63A93,93,0,0,1,492,582.28a92.33,92.33,0,0,1,80.84,47,97.31,97.31,0,0,1,18.6-1.8,95.82,95.82,0,0,1,76,37.08,81.8,81.8,0,0,1,18.25,38.88,83.05,83.05,0,0,1,1.23,14.14,82,82,0,0,1-69.58,81Z"/><path class="cls-56" d="M526.72,820.41H511.37V750.28H490.15v70.13H474.8a3,3,0,0,0-2.58,4.46l26,45a3,3,0,0,0,5.15,0l26-45A3,3,0,0,0,526.72,820.41Z"/></g><g class="cls-57"><path class="cls-58" d="M988.64,733.17a79.12,79.12,0,1,1,79.51-78.73A79.2,79.2,0,0,1,988.64,733.17Zm.73-149.71a70.59,70.59,0,1,0,70.25,70.94A70.68,70.68,0,0,0,989.37,583.46Z"/><path class="cls-59" d="M1128.71,563.35H1019.77a95.66,95.66,0,0,0-30.27-5.07l0,7.35a88.42,88.42,0,1,1-88.85,88l-7.35,0a95.77,95.77,0,1,0,130.46-88.79h105Z"/><path class="cls-60" d="M1068.36,734.72l-5.17-5.22a105.64,105.64,0,0,0,.73-149.22l5.22-5.17A113,113,0,0,1,1068.36,734.72Z"/><rect class="cls-61" x="1113.49" y="637.61" width="0.73" height="32.11" transform="matrix(0, -1, 1, 0, 454.7, 1764.29)"/><rect class="cls-62" x="1117.31" y="638.04" width="0.74" height="76.87" transform="translate(435.51 1790.68) rotate(-89.71)"/><rect class="cls-63" x="1069.3" y="671.73" width="0.73" height="111.42" transform="matrix(0, -1, 1, 0, 337.01, 1793.54)"/><path class="cls-64" d="M1016.23,667.33a16.72,16.72,0,0,0-13.92,7.34l-32.5-12.62a16.28,16.28,0,0,0,.86-5.19,16.47,16.47,0,0,0-.87-5.37l32.52-16.33a16.77,16.77,0,1,0-2-4.11l-32.51,16.32a16.73,16.73,0,1,0,0,18.8l32.5,12.62a16.52,16.52,0,0,0-.87,5.19,16.74,16.74,0,1,0,16.82-16.65Z"/><path class="cls-65" d="M1151.78,676.08a4.34,4.34,0,1,1,4.32,4.36A4.33,4.33,0,0,1,1151.78,676.08Z"/><path class="cls-66" d="M1121,727.7a4.34,4.34,0,1,1,4.32,4.36A4.34,4.34,0,0,1,1121,727.7Z"/></g><g class="cls-67"><path class="cls-68" d="M489.15,206.41a61.41,61.41,0,0,0-42.49,17,9.41,9.41,0,0,0-.33,13.3,9.46,9.46,0,0,0,6.83,2.93,9.32,9.32,0,0,0,6.48-2.59,42.85,42.85,0,0,1,58.91-.1,9.42,9.42,0,0,0,15.89-7.09,9.33,9.33,0,0,0-3-6.59A61.41,61.41,0,0,0,489.15,206.41Z"/><path class="cls-69" d="M551.33,197.47a90.53,90.53,0,0,0-124.5.2,9.42,9.42,0,0,0-.34,13.3,9.41,9.41,0,0,0,13.32.35,71.67,71.67,0,0,1,98.59-.15,9.41,9.41,0,0,0,15.87-7.1A9.34,9.34,0,0,0,551.33,197.47Z"/><path class="cls-70" d="M490.66,240.59A18.37,18.37,0,1,0,509,259,18.39,18.39,0,0,0,490.66,240.59Zm.12,22.79c0,.06-.25.06-.25,0s.07-.07.13-.07S490.78,263.35,490.78,263.38Z"/></g><polygon class="cls-71" points="1206.87 609.96 1155.01 609.96 1128.85 564.65 1154.78 519.74 1156.14 520.53 1130.67 564.65 1155.92 608.38 1206.87 608.38 1206.87 609.96"/><rect class="cls-72" x="1194.01" y="764.19" width="51.4" height="1.58" transform="translate(-52.89 1438.31) rotate(-59.98)"/><path class="cls-73" d="M1284.24,654.48h-52.32l-26.16-45.31,26.16-45.31h52.32l26.15,45.31Zm-51.41-1.58h50.5l25.24-43.73-25.24-43.73h-50.5l-25.24,43.73Z"/><polygon class="cls-74" points="1284.24 743.51 1231.92 743.51 1205.99 698.6 1207.36 697.81 1232.83 741.93 1283.33 741.93 1308.57 698.2 1283.1 654.08 1284.46 653.29 1310.39 698.2 1284.24 743.51"/><polygon class="cls-75" points="1207.32 698.99 1155.01 698.99 1128.85 653.69 1155.01 608.38 1206.87 608.38 1206.87 609.96 1155.92 609.96 1130.67 653.69 1155.92 697.41 1206.41 697.41 1231.88 653.29 1233.25 654.08 1207.32 698.99"/><polygon class="cls-76" points="1361.46 698.6 1360.1 697.81 1385.57 653.69 1360.32 609.96 1309.38 609.96 1309.38 608.38 1361.23 608.38 1387.39 653.69 1361.46 698.6"/><rect class="cls-77" x="1347.93" y="586.12" width="51.4" height="1.58" transform="translate(178.73 1483.31) rotate(-60.01)"/><rect class="cls-78" x="1386.48" y="652.9" width="87.84" height="1.58"/><path class="cls-79" d="M1209.43,698.2a2.57,2.57,0,1,1-2.56-2.56A2.57,2.57,0,0,1,1209.43,698.2Z"/><path class="cls-80" d="M1158,698.2a2.57,2.57,0,1,1-2.57-2.56A2.57,2.57,0,0,1,1158,698.2Z"/><path class="cls-81" d="M1209.43,787.24a2.57,2.57,0,1,1-2.56-2.57A2.56,2.56,0,0,1,1209.43,787.24Z"/><path class="cls-82" d="M1235.13,653.69a2.57,2.57,0,1,1-2.56-2.57A2.56,2.56,0,0,1,1235.13,653.69Z"/><path class="cls-83" d="M1235.13,742.72a2.57,2.57,0,1,1-2.56-2.57A2.57,2.57,0,0,1,1235.13,742.72Z"/><path class="cls-84" d="M1286.77,653.69a2.57,2.57,0,1,1-2.57-2.57A2.57,2.57,0,0,1,1286.77,653.69Z"/><path class="cls-85" d="M1286.77,564.65a2.57,2.57,0,1,1-2.57-2.56A2.57,2.57,0,0,1,1286.77,564.65Z"/><path class="cls-86" d="M1234.94,564.65a2.57,2.57,0,1,1-2.56-2.56A2.56,2.56,0,0,1,1234.94,564.65Z"/><path class="cls-87" d="M1389.05,653.69a2.57,2.57,0,1,1-2.57-2.57A2.57,2.57,0,0,1,1389.05,653.69Z"/><path class="cls-88" d="M1476.89,653.69a2.57,2.57,0,1,1-2.57-2.57A2.57,2.57,0,0,1,1476.89,653.69Z"/><path class="cls-89" d="M1132.33,653.69a2.57,2.57,0,1,1-2.57-2.57A2.57,2.57,0,0,1,1132.33,653.69Z"/><path class="cls-90" d="M1209.43,609.17a2.57,2.57,0,1,1-2.56-2.57A2.57,2.57,0,0,1,1209.43,609.17Z"/><path class="cls-91" d="M1158,609.17a2.57,2.57,0,1,1-2.57-2.57A2.57,2.57,0,0,1,1158,609.17Z"/><path class="cls-92" d="M1363.26,609.17a2.57,2.57,0,1,1-2.56-2.57A2.56,2.56,0,0,1,1363.26,609.17Z"/><path class="cls-93" d="M1389.05,564.65a2.57,2.57,0,1,1-2.57-2.56A2.57,2.57,0,0,1,1389.05,564.65Z"/><path class="cls-94" d="M1311.86,609.17a2.57,2.57,0,1,1-2.57-2.57A2.57,2.57,0,0,1,1311.86,609.17Z"/><path class="cls-95" d="M1286.77,742.72a2.57,2.57,0,1,1-2.57-2.57A2.57,2.57,0,0,1,1286.77,742.72Z"/><path class="cls-96" d="M1311.86,698.2a2.57,2.57,0,1,1-2.57-2.56A2.57,2.57,0,0,1,1311.86,698.2Z"/><path class="cls-97" d="M1363.26,698.2a2.57,2.57,0,1,1-2.56-2.56A2.56,2.56,0,0,1,1363.26,698.2Z"/><path class="cls-98" d="M1132.33,564.65a2.57,2.57,0,1,1-2.57-2.56A2.57,2.57,0,0,1,1132.33,564.65Z"/><path class="cls-99" d="M1158,520.86a2.57,2.57,0,1,1-2.57-2.56A2.57,2.57,0,0,1,1158,520.86Z"/><g class="cls-67"><path class="cls-100" d="M1180.64,536.69a.62.62,0,0,0-1,.49v5.23a21.83,21.83,0,0,0-20.56,21.52,21.25,21.25,0,0,0,5.61,14.38.6.6,0,0,0,.43.2.57.57,0,0,0,.36-.13l5.08-4a.57.57,0,0,0,.22-.42.58.58,0,0,0-.17-.45,13.59,13.59,0,0,1-4-9.59,14,14,0,0,1,13-13.76v5.23a.6.6,0,0,0,.34.54.64.64,0,0,0,.65-.08l5.94-4.69.11-.08,2.28-1.82,3.54-2.79a.63.63,0,0,0,.23-.48.61.61,0,0,0-.23-.47Z"/><path class="cls-101" d="M1195.75,548.69l-5.42,4.29a.66.66,0,0,0-.23.45.62.62,0,0,0,.19.46,13.56,13.56,0,0,1,4.44,10.05,13.92,13.92,0,0,1-13.84,13.79v-5.4a.61.61,0,0,0-1-.48l-5.8,4.47a.58.58,0,0,0-.26.18l0,0-5.42,4.18a.58.58,0,0,0-.22.45.6.6,0,0,0,.22.47l11.51,9.38a.65.65,0,0,0,.37.14.62.62,0,0,0,.27,0,.57.57,0,0,0,.34-.53v-5.07A21.76,21.76,0,0,0,1203,563.94a21.27,21.27,0,0,0-6.4-15.21A.65.65,0,0,0,1195.75,548.69Z"/></g><path class="cls-102" d="M1257.69,678.57c-13.22,0-23.94,9-23.94,20.12s10.72,20.12,23.94,20.12a28.22,28.22,0,0,0,7.62-1l5,5.05a.75.75,0,0,0,1.27-.43l1.09-8c5.43-3.69,8.91-9.33,8.91-15.66C1281.63,687.58,1270.91,678.57,1257.69,678.57Zm-14.53,24a3.25,3.25,0,1,1,3.25-3.24A3.25,3.25,0,0,1,1243.16,702.53Zm13.5,0a3.25,3.25,0,1,1,3.25-3.24A3.25,3.25,0,0,1,1256.66,702.53Zm13.93,0a3.25,3.25,0,1,1,3.25-3.24A3.25,3.25,0,0,1,1270.59,702.53Z"/><rect class="cls-51" x="328.42" y="352.91" width="6" height="3"/><path class="cls-51" d="M481.31,355.91H469.07v-3h12.24Zm-24.48,0H444.59v-3h12.24Zm-24.48,0H420.1v-3h12.25Zm-24.49,0H395.62v-3h12.24Zm-24.48,0H371.14v-3h12.24Zm-24.48,0H346.66v-3H358.9Z"/><polygon class="cls-51" points="501.05 360.41 498.05 360.41 498.05 355.91 493.55 355.91 493.55 352.91 501.05 352.91 501.05 360.41"/><path class="cls-51" d="M501.05,550.47h-3V538.59h3Zm0-23.76h-3V514.83h3Zm0-23.76h-3V491.07h3Zm0-23.75h-3V467.32h3Zm0-23.76h-3V443.56h3Zm0-23.76h-3V419.8h3Zm0-23.76h-3V396h3Zm0-23.76h-3V372.28h3Z"/><rect class="cls-51" x="498.05" y="562.35" width="3" height="6"/></g></g></g></svg>